<svg xmlns="http://www.w3.org/2000/svg" viewBox="0 0 900 390" role="img" aria-labelledby="title desc">
<title id="title">Penjumlahan harmonisa 1, 3, 5, 7, 9, dan 10</title>
<desc id="desc">Kurva setiap harmonisa dan resultan jumlah sin(n theta) dibagi n selama satu periode.</desc>
<rect width="900" height="390" fill="#ffffff"/>
<text x="450" y="28" text-anchor="middle" font-family="sans-serif" font-size="17" fill="#1f2937">x(θ) = Σ sin(nθ)/n, n = 1, 3, 5, 7, 9, 10</text>
<path d="M80 55V325 M80 190H860" stroke="#64748b" stroke-width="1"/>
<path d="M80 148H860 M80 232H860" stroke="#e2e8f0" stroke-width="1"/>
<path d="M80.00 55V325" stroke="#f1f5f9" stroke-width="1"/>
<text x="80.00" y="349" text-anchor="middle" font-family="sans-serif" font-size="12" fill="#475569">0</text>
<path d="M275.00 55V325" stroke="#f1f5f9" stroke-width="1"/>
<text x="275.00" y="349" text-anchor="middle" font-family="sans-serif" font-size="12" fill="#475569">π/2</text>
<path d="M470.00 55V325" stroke="#f1f5f9" stroke-width="1"/>
<text x="470.00" y="349" text-anchor="middle" font-family="sans-serif" font-size="12" fill="#475569">π</text>
<path d="M665.00 55V325" stroke="#f1f5f9" stroke-width="1"/>
<text x="665.00" y="349" text-anchor="middle" font-family="sans-serif" font-size="12" fill="#475569">3π/2</text>
<path d="M860.00 55V325" stroke="#f1f5f9" stroke-width="1"/>
<text x="860.00" y="349" text-anchor="middle" font-family="sans-serif" font-size="12" fill="#475569">2π</text>
<path d="M 80.00,190.00 L 81.08,189.63 L 82.17,189.27 L 83.25,188.90 L 84.33,188.53 L 85.42,188.17 L 86.50,187.80 L 87.58,187.44 L 88.67,187.07 L 89.75,186.70 L 90.83,186.34 L 91.92,185.97 L 93.00,185.61 L 94.08,185.25 L 95.17,184.88 L 96.25,184.52 L 97.33,184.15 L 98.42,183.79 L 99.50,183.43 L 100.58,183.07 L 101.67,182.71 L 102.75,182.35 L 103.83,181.99 L 104.92,181.63 L 106.00,181.27 L 107.08,180.91 L 108.17,180.55 L 109.25,180.20 L 110.33,179.84 L 111.42,179.48 L 112.50,179.13 L 113.58,178.78 L 114.67,178.42 L 115.75,178.07 L 116.83,177.72 L 117.92,177.37 L 119.00,177.02 L 120.08,176.67 L 121.17,176.33 L 122.25,175.98 L 123.33,175.64 L 124.42,175.29 L 125.50,174.95 L 126.58,174.61 L 127.67,174.27 L 128.75,173.93 L 129.83,173.59 L 130.92,173.25 L 132.00,172.92 L 133.08,172.58 L 134.17,172.25 L 135.25,171.92 L 136.33,171.59 L 137.42,171.26 L 138.50,170.93 L 139.58,170.61 L 140.67,170.28 L 141.75,169.96 L 142.83,169.64 L 143.92,169.32 L 145.00,169.00 L 146.08,168.68 L 147.17,168.37 L 148.25,168.06 L 149.33,167.74 L 150.42,167.43 L 151.50,167.13 L 152.58,166.82 L 153.67,166.51 L 154.75,166.21 L 155.83,165.91 L 156.92,165.61 L 158.00,165.31 L 159.08,165.02 L 160.17,164.72 L 161.25,164.43 L 162.33,164.14 L 163.42,163.85 L 164.50,163.57 L 165.58,163.28 L 166.67,163.00 L 167.75,162.72 L 168.83,162.45 L 169.92,162.17 L 171.00,161.90 L 172.08,161.63 L 173.17,161.36 L 174.25,161.09 L 175.33,160.82 L 176.42,160.56 L 177.50,160.30 L 178.58,160.04 L 179.67,159.79 L 180.75,159.53 L 181.83,159.28 L 182.92,159.03 L 184.00,158.79 L 185.08,158.54 L 186.17,158.30 L 187.25,158.06 L 188.33,157.83 L 189.42,157.59 L 190.50,157.36 L 191.58,157.13 L 192.67,156.90 L 193.75,156.68 L 194.83,156.46 L 195.92,156.24 L 197.00,156.02 L 198.08,155.81 L 199.17,155.60 L 200.25,155.39 L 201.33,155.18 L 202.42,154.98 L 203.50,154.78 L 204.58,154.58 L 205.67,154.38 L 206.75,154.19 L 207.83,154.00 L 208.92,153.81 L 210.00,153.63 L 211.08,153.45 L 212.17,153.27 L 213.25,153.09 L 214.33,152.92 L 215.42,152.75 L 216.50,152.58 L 217.58,152.41 L 218.67,152.25 L 219.75,152.09 L 220.83,151.94 L 221.92,151.78 L 223.00,151.63 L 224.08,151.48 L 225.17,151.34 L 226.25,151.20 L 227.33,151.06 L 228.42,150.92 L 229.50,150.79 L 230.58,150.66 L 231.67,150.53 L 232.75,150.41 L 233.83,150.29 L 234.92,150.17 L 236.00,150.06 L 237.08,149.94 L 238.17,149.84 L 239.25,149.73 L 240.33,149.63 L 241.42,149.53 L 242.50,149.43 L 243.58,149.34 L 244.67,149.25 L 245.75,149.16 L 246.83,149.08 L 247.92,149.00 L 249.00,148.92 L 250.08,148.84 L 251.17,148.77 L 252.25,148.70 L 253.33,148.64 L 254.42,148.58 L 255.50,148.52 L 256.58,148.46 L 257.67,148.41 L 258.75,148.36 L 259.83,148.31 L 260.92,148.27 L 262.00,148.23 L 263.08,148.19 L 264.17,148.16 L 265.25,148.13 L 266.33,148.10 L 267.42,148.08 L 268.50,148.06 L 269.58,148.04 L 270.67,148.03 L 271.75,148.01 L 272.83,148.01 L 273.92,148.00 L 275.00,148.00 L 276.08,148.00 L 277.17,148.01 L 278.25,148.01 L 279.33,148.03 L 280.42,148.04 L 281.50,148.06 L 282.58,148.08 L 283.67,148.10 L 284.75,148.13 L 285.83,148.16 L 286.92,148.19 L 288.00,148.23 L 289.08,148.27 L 290.17,148.31 L 291.25,148.36 L 292.33,148.41 L 293.42,148.46 L 294.50,148.52 L 295.58,148.58 L 296.67,148.64 L 297.75,148.70 L 298.83,148.77 L 299.92,148.84 L 301.00,148.92 L 302.08,149.00 L 303.17,149.08 L 304.25,149.16 L 305.33,149.25 L 306.42,149.34 L 307.50,149.43 L 308.58,149.53 L 309.67,149.63 L 310.75,149.73 L 311.83,149.84 L 312.92,149.94 L 314.00,150.06 L 315.08,150.17 L 316.17,150.29 L 317.25,150.41 L 318.33,150.53 L 319.42,150.66 L 320.50,150.79 L 321.58,150.92 L 322.67,151.06 L 323.75,151.20 L 324.83,151.34 L 325.92,151.48 L 327.00,151.63 L 328.08,151.78 L 329.17,151.94 L 330.25,152.09 L 331.33,152.25 L 332.42,152.41 L 333.50,152.58 L 334.58,152.75 L 335.67,152.92 L 336.75,153.09 L 337.83,153.27 L 338.92,153.45 L 340.00,153.63 L 341.08,153.81 L 342.17,154.00 L 343.25,154.19 L 344.33,154.38 L 345.42,154.58 L 346.50,154.78 L 347.58,154.98 L 348.67,155.18 L 349.75,155.39 L 350.83,155.60 L 351.92,155.81 L 353.00,156.02 L 354.08,156.24 L 355.17,156.46 L 356.25,156.68 L 357.33,156.90 L 358.42,157.13 L 359.50,157.36 L 360.58,157.59 L 361.67,157.83 L 362.75,158.06 L 363.83,158.30 L 364.92,158.54 L 366.00,158.79 L 367.08,159.03 L 368.17,159.28 L 369.25,159.53 L 370.33,159.79 L 371.42,160.04 L 372.50,160.30 L 373.58,160.56 L 374.67,160.82 L 375.75,161.09 L 376.83,161.36 L 377.92,161.63 L 379.00,161.90 L 380.08,162.17 L 381.17,162.45 L 382.25,162.72 L 383.33,163.00 L 384.42,163.28 L 385.50,163.57 L 386.58,163.85 L 387.67,164.14 L 388.75,164.43 L 389.83,164.72 L 390.92,165.02 L 392.00,165.31 L 393.08,165.61 L 394.17,165.91 L 395.25,166.21 L 396.33,166.51 L 397.42,166.82 L 398.50,167.13 L 399.58,167.43 L 400.67,167.74 L 401.75,168.06 L 402.83,168.37 L 403.92,168.68 L 405.00,169.00 L 406.08,169.32 L 407.17,169.64 L 408.25,169.96 L 409.33,170.28 L 410.42,170.61 L 411.50,170.93 L 412.58,171.26 L 413.67,171.59 L 414.75,171.92 L 415.83,172.25 L 416.92,172.58 L 418.00,172.92 L 419.08,173.25 L 420.17,173.59 L 421.25,173.93 L 422.33,174.27 L 423.42,174.61 L 424.50,174.95 L 425.58,175.29 L 426.67,175.64 L 427.75,175.98 L 428.83,176.33 L 429.92,176.67 L 431.00,177.02 L 432.08,177.37 L 433.17,177.72 L 434.25,178.07 L 435.33,178.42 L 436.42,178.78 L 437.50,179.13 L 438.58,179.48 L 439.67,179.84 L 440.75,180.20 L 441.83,180.55 L 442.92,180.91 L 444.00,181.27 L 445.08,181.63 L 446.17,181.99 L 447.25,182.35 L 448.33,182.71 L 449.42,183.07 L 450.50,183.43 L 451.58,183.79 L 452.67,184.15 L 453.75,184.52 L 454.83,184.88 L 455.92,185.25 L 457.00,185.61 L 458.08,185.97 L 459.17,186.34 L 460.25,186.70 L 461.33,187.07 L 462.42,187.44 L 463.50,187.80 L 464.58,188.17 L 465.67,188.53 L 466.75,188.90 L 467.83,189.27 L 468.92,189.63 L 470.00,190.00 L 471.08,190.37 L 472.17,190.73 L 473.25,191.10 L 474.33,191.47 L 475.42,191.83 L 476.50,192.20 L 477.58,192.56 L 478.67,192.93 L 479.75,193.30 L 480.83,193.66 L 481.92,194.03 L 483.00,194.39 L 484.08,194.75 L 485.17,195.12 L 486.25,195.48 L 487.33,195.85 L 488.42,196.21 L 489.50,196.57 L 490.58,196.93 L 491.67,197.29 L 492.75,197.65 L 493.83,198.01 L 494.92,198.37 L 496.00,198.73 L 497.08,199.09 L 498.17,199.45 L 499.25,199.80 L 500.33,200.16 L 501.42,200.52 L 502.50,200.87 L 503.58,201.22 L 504.67,201.58 L 505.75,201.93 L 506.83,202.28 L 507.92,202.63 L 509.00,202.98 L 510.08,203.33 L 511.17,203.67 L 512.25,204.02 L 513.33,204.36 L 514.42,204.71 L 515.50,205.05 L 516.58,205.39 L 517.67,205.73 L 518.75,206.07 L 519.83,206.41 L 520.92,206.75 L 522.00,207.08 L 523.08,207.42 L 524.17,207.75 L 525.25,208.08 L 526.33,208.41 L 527.42,208.74 L 528.50,209.07 L 529.58,209.39 L 530.67,209.72 L 531.75,210.04 L 532.83,210.36 L 533.92,210.68 L 535.00,211.00 L 536.08,211.32 L 537.17,211.63 L 538.25,211.94 L 539.33,212.26 L 540.42,212.57 L 541.50,212.87 L 542.58,213.18 L 543.67,213.49 L 544.75,213.79 L 545.83,214.09 L 546.92,214.39 L 548.00,214.69 L 549.08,214.98 L 550.17,215.28 L 551.25,215.57 L 552.33,215.86 L 553.42,216.15 L 554.50,216.43 L 555.58,216.72 L 556.67,217.00 L 557.75,217.28 L 558.83,217.55 L 559.92,217.83 L 561.00,218.10 L 562.08,218.37 L 563.17,218.64 L 564.25,218.91 L 565.33,219.18 L 566.42,219.44 L 567.50,219.70 L 568.58,219.96 L 569.67,220.21 L 570.75,220.47 L 571.83,220.72 L 572.92,220.97 L 574.00,221.21 L 575.08,221.46 L 576.17,221.70 L 577.25,221.94 L 578.33,222.17 L 579.42,222.41 L 580.50,222.64 L 581.58,222.87 L 582.67,223.10 L 583.75,223.32 L 584.83,223.54 L 585.92,223.76 L 587.00,223.98 L 588.08,224.19 L 589.17,224.40 L 590.25,224.61 L 591.33,224.82 L 592.42,225.02 L 593.50,225.22 L 594.58,225.42 L 595.67,225.62 L 596.75,225.81 L 597.83,226.00 L 598.92,226.19 L 600.00,226.37 L 601.08,226.55 L 602.17,226.73 L 603.25,226.91 L 604.33,227.08 L 605.42,227.25 L 606.50,227.42 L 607.58,227.59 L 608.67,227.75 L 609.75,227.91 L 610.83,228.06 L 611.92,228.22 L 613.00,228.37 L 614.08,228.52 L 615.17,228.66 L 616.25,228.80 L 617.33,228.94 L 618.42,229.08 L 619.50,229.21 L 620.58,229.34 L 621.67,229.47 L 622.75,229.59 L 623.83,229.71 L 624.92,229.83 L 626.00,229.94 L 627.08,230.06 L 628.17,230.16 L 629.25,230.27 L 630.33,230.37 L 631.42,230.47 L 632.50,230.57 L 633.58,230.66 L 634.67,230.75 L 635.75,230.84 L 636.83,230.92 L 637.92,231.00 L 639.00,231.08 L 640.08,231.16 L 641.17,231.23 L 642.25,231.30 L 643.33,231.36 L 644.42,231.42 L 645.50,231.48 L 646.58,231.54 L 647.67,231.59 L 648.75,231.64 L 649.83,231.69 L 650.92,231.73 L 652.00,231.77 L 653.08,231.81 L 654.17,231.84 L 655.25,231.87 L 656.33,231.90 L 657.42,231.92 L 658.50,231.94 L 659.58,231.96 L 660.67,231.97 L 661.75,231.99 L 662.83,231.99 L 663.92,232.00 L 665.00,232.00 L 666.08,232.00 L 667.17,231.99 L 668.25,231.99 L 669.33,231.97 L 670.42,231.96 L 671.50,231.94 L 672.58,231.92 L 673.67,231.90 L 674.75,231.87 L 675.83,231.84 L 676.92,231.81 L 678.00,231.77 L 679.08,231.73 L 680.17,231.69 L 681.25,231.64 L 682.33,231.59 L 683.42,231.54 L 684.50,231.48 L 685.58,231.42 L 686.67,231.36 L 687.75,231.30 L 688.83,231.23 L 689.92,231.16 L 691.00,231.08 L 692.08,231.00 L 693.17,230.92 L 694.25,230.84 L 695.33,230.75 L 696.42,230.66 L 697.50,230.57 L 698.58,230.47 L 699.67,230.37 L 700.75,230.27 L 701.83,230.16 L 702.92,230.06 L 704.00,229.94 L 705.08,229.83 L 706.17,229.71 L 707.25,229.59 L 708.33,229.47 L 709.42,229.34 L 710.50,229.21 L 711.58,229.08 L 712.67,228.94 L 713.75,228.80 L 714.83,228.66 L 715.92,228.52 L 717.00,228.37 L 718.08,228.22 L 719.17,228.06 L 720.25,227.91 L 721.33,227.75 L 722.42,227.59 L 723.50,227.42 L 724.58,227.25 L 725.67,227.08 L 726.75,226.91 L 727.83,226.73 L 728.92,226.55 L 730.00,226.37 L 731.08,226.19 L 732.17,226.00 L 733.25,225.81 L 734.33,225.62 L 735.42,225.42 L 736.50,225.22 L 737.58,225.02 L 738.67,224.82 L 739.75,224.61 L 740.83,224.40 L 741.92,224.19 L 743.00,223.98 L 744.08,223.76 L 745.17,223.54 L 746.25,223.32 L 747.33,223.10 L 748.42,222.87 L 749.50,222.64 L 750.58,222.41 L 751.67,222.17 L 752.75,221.94 L 753.83,221.70 L 754.92,221.46 L 756.00,221.21 L 757.08,220.97 L 758.17,220.72 L 759.25,220.47 L 760.33,220.21 L 761.42,219.96 L 762.50,219.70 L 763.58,219.44 L 764.67,219.18 L 765.75,218.91 L 766.83,218.64 L 767.92,218.37 L 769.00,218.10 L 770.08,217.83 L 771.17,217.55 L 772.25,217.28 L 773.33,217.00 L 774.42,216.72 L 775.50,216.43 L 776.58,216.15 L 777.67,215.86 L 778.75,215.57 L 779.83,215.28 L 780.92,214.98 L 782.00,214.69 L 783.08,214.39 L 784.17,214.09 L 785.25,213.79 L 786.33,213.49 L 787.42,213.18 L 788.50,212.87 L 789.58,212.57 L 790.67,212.26 L 791.75,211.94 L 792.83,211.63 L 793.92,211.32 L 795.00,211.00 L 796.08,210.68 L 797.17,210.36 L 798.25,210.04 L 799.33,209.72 L 800.42,209.39 L 801.50,209.07 L 802.58,208.74 L 803.67,208.41 L 804.75,208.08 L 805.83,207.75 L 806.92,207.42 L 808.00,207.08 L 809.08,206.75 L 810.17,206.41 L 811.25,206.07 L 812.33,205.73 L 813.42,205.39 L 814.50,205.05 L 815.58,204.71 L 816.67,204.36 L 817.75,204.02 L 818.83,203.67 L 819.92,203.33 L 821.00,202.98 L 822.08,202.63 L 823.17,202.28 L 824.25,201.93 L 825.33,201.58 L 826.42,201.22 L 827.50,200.87 L 828.58,200.52 L 829.67,200.16 L 830.75,199.80 L 831.83,199.45 L 832.92,199.09 L 834.00,198.73 L 835.08,198.37 L 836.17,198.01 L 837.25,197.65 L 838.33,197.29 L 839.42,196.93 L 840.50,196.57 L 841.58,196.21 L 842.67,195.85 L 843.75,195.48 L 844.83,195.12 L 845.92,194.75 L 847.00,194.39 L 848.08,194.03 L 849.17,193.66 L 850.25,193.30 L 851.33,192.93 L 852.42,192.56 L 853.50,192.20 L 854.58,191.83 L 855.67,191.47 L 856.75,191.10 L 857.83,190.73 L 858.92,190.37 L 860.00,190.00" fill="none" stroke="#60a5fa" stroke-width="1.4" opacity="0.75"/>
<text x="700" y="53" font-family="sans-serif" font-size="11" fill="#60a5fa">harmonis 1</text>
<path d="M 80.00,190.00 L 81.08,189.63 L 82.17,189.27 L 83.25,188.90 L 84.33,188.54 L 85.42,188.17 L 86.50,187.81 L 87.58,187.45 L 88.67,187.09 L 89.75,186.73 L 90.83,186.38 L 91.92,186.02 L 93.00,185.67 L 94.08,185.33 L 95.17,184.98 L 96.25,184.64 L 97.33,184.31 L 98.42,183.97 L 99.50,183.64 L 100.58,183.32 L 101.67,183.00 L 102.75,182.69 L 103.83,182.38 L 104.92,182.07 L 106.00,181.77 L 107.08,181.48 L 108.17,181.19 L 109.25,180.91 L 110.33,180.63 L 111.42,180.36 L 112.50,180.10 L 113.58,179.84 L 114.67,179.60 L 115.75,179.35 L 116.83,179.12 L 117.92,178.89 L 119.00,178.67 L 120.08,178.46 L 121.17,178.26 L 122.25,178.06 L 123.33,177.88 L 124.42,177.70 L 125.50,177.53 L 126.58,177.36 L 127.67,177.21 L 128.75,177.07 L 129.83,176.93 L 130.92,176.80 L 132.00,176.69 L 133.08,176.58 L 134.17,176.48 L 135.25,176.39 L 136.33,176.31 L 137.42,176.23 L 138.50,176.17 L 139.58,176.12 L 140.67,176.08 L 141.75,176.04 L 142.83,176.02 L 143.92,176.00 L 145.00,176.00 L 146.08,176.00 L 147.17,176.02 L 148.25,176.04 L 149.33,176.08 L 150.42,176.12 L 151.50,176.17 L 152.58,176.23 L 153.67,176.31 L 154.75,176.39 L 155.83,176.48 L 156.92,176.58 L 158.00,176.69 L 159.08,176.80 L 160.17,176.93 L 161.25,177.07 L 162.33,177.21 L 163.42,177.36 L 164.50,177.53 L 165.58,177.70 L 166.67,177.88 L 167.75,178.06 L 168.83,178.26 L 169.92,178.46 L 171.00,178.67 L 172.08,178.89 L 173.17,179.12 L 174.25,179.35 L 175.33,179.60 L 176.42,179.84 L 177.50,180.10 L 178.58,180.36 L 179.67,180.63 L 180.75,180.91 L 181.83,181.19 L 182.92,181.48 L 184.00,181.77 L 185.08,182.07 L 186.17,182.38 L 187.25,182.69 L 188.33,183.00 L 189.42,183.32 L 190.50,183.64 L 191.58,183.97 L 192.67,184.31 L 193.75,184.64 L 194.83,184.98 L 195.92,185.33 L 197.00,185.67 L 198.08,186.02 L 199.17,186.38 L 200.25,186.73 L 201.33,187.09 L 202.42,187.45 L 203.50,187.81 L 204.58,188.17 L 205.67,188.54 L 206.75,188.90 L 207.83,189.27 L 208.92,189.63 L 210.00,190.00 L 211.08,190.37 L 212.17,190.73 L 213.25,191.10 L 214.33,191.46 L 215.42,191.83 L 216.50,192.19 L 217.58,192.55 L 218.67,192.91 L 219.75,193.27 L 220.83,193.62 L 221.92,193.98 L 223.00,194.33 L 224.08,194.67 L 225.17,195.02 L 226.25,195.36 L 227.33,195.69 L 228.42,196.03 L 229.50,196.36 L 230.58,196.68 L 231.67,197.00 L 232.75,197.31 L 233.83,197.62 L 234.92,197.93 L 236.00,198.23 L 237.08,198.52 L 238.17,198.81 L 239.25,199.09 L 240.33,199.37 L 241.42,199.64 L 242.50,199.90 L 243.58,200.16 L 244.67,200.40 L 245.75,200.65 L 246.83,200.88 L 247.92,201.11 L 249.00,201.33 L 250.08,201.54 L 251.17,201.74 L 252.25,201.94 L 253.33,202.12 L 254.42,202.30 L 255.50,202.47 L 256.58,202.64 L 257.67,202.79 L 258.75,202.93 L 259.83,203.07 L 260.92,203.20 L 262.00,203.31 L 263.08,203.42 L 264.17,203.52 L 265.25,203.61 L 266.33,203.69 L 267.42,203.77 L 268.50,203.83 L 269.58,203.88 L 270.67,203.92 L 271.75,203.96 L 272.83,203.98 L 273.92,204.00 L 275.00,204.00 L 276.08,204.00 L 277.17,203.98 L 278.25,203.96 L 279.33,203.92 L 280.42,203.88 L 281.50,203.83 L 282.58,203.77 L 283.67,203.69 L 284.75,203.61 L 285.83,203.52 L 286.92,203.42 L 288.00,203.31 L 289.08,203.20 L 290.17,203.07 L 291.25,202.93 L 292.33,202.79 L 293.42,202.64 L 294.50,202.47 L 295.58,202.30 L 296.67,202.12 L 297.75,201.94 L 298.83,201.74 L 299.92,201.54 L 301.00,201.33 L 302.08,201.11 L 303.17,200.88 L 304.25,200.65 L 305.33,200.40 L 306.42,200.16 L 307.50,199.90 L 308.58,199.64 L 309.67,199.37 L 310.75,199.09 L 311.83,198.81 L 312.92,198.52 L 314.00,198.23 L 315.08,197.93 L 316.17,197.62 L 317.25,197.31 L 318.33,197.00 L 319.42,196.68 L 320.50,196.36 L 321.58,196.03 L 322.67,195.69 L 323.75,195.36 L 324.83,195.02 L 325.92,194.67 L 327.00,194.33 L 328.08,193.98 L 329.17,193.62 L 330.25,193.27 L 331.33,192.91 L 332.42,192.55 L 333.50,192.19 L 334.58,191.83 L 335.67,191.46 L 336.75,191.10 L 337.83,190.73 L 338.92,190.37 L 340.00,190.00 L 341.08,189.63 L 342.17,189.27 L 343.25,188.90 L 344.33,188.54 L 345.42,188.17 L 346.50,187.81 L 347.58,187.45 L 348.67,187.09 L 349.75,186.73 L 350.83,186.38 L 351.92,186.02 L 353.00,185.67 L 354.08,185.33 L 355.17,184.98 L 356.25,184.64 L 357.33,184.31 L 358.42,183.97 L 359.50,183.64 L 360.58,183.32 L 361.67,183.00 L 362.75,182.69 L 363.83,182.38 L 364.92,182.07 L 366.00,181.77 L 367.08,181.48 L 368.17,181.19 L 369.25,180.91 L 370.33,180.63 L 371.42,180.36 L 372.50,180.10 L 373.58,179.84 L 374.67,179.60 L 375.75,179.35 L 376.83,179.12 L 377.92,178.89 L 379.00,178.67 L 380.08,178.46 L 381.17,178.26 L 382.25,178.06 L 383.33,177.88 L 384.42,177.70 L 385.50,177.53 L 386.58,177.36 L 387.67,177.21 L 388.75,177.07 L 389.83,176.93 L 390.92,176.80 L 392.00,176.69 L 393.08,176.58 L 394.17,176.48 L 395.25,176.39 L 396.33,176.31 L 397.42,176.23 L 398.50,176.17 L 399.58,176.12 L 400.67,176.08 L 401.75,176.04 L 402.83,176.02 L 403.92,176.00 L 405.00,176.00 L 406.08,176.00 L 407.17,176.02 L 408.25,176.04 L 409.33,176.08 L 410.42,176.12 L 411.50,176.17 L 412.58,176.23 L 413.67,176.31 L 414.75,176.39 L 415.83,176.48 L 416.92,176.58 L 418.00,176.69 L 419.08,176.80 L 420.17,176.93 L 421.25,177.07 L 422.33,177.21 L 423.42,177.36 L 424.50,177.53 L 425.58,177.70 L 426.67,177.88 L 427.75,178.06 L 428.83,178.26 L 429.92,178.46 L 431.00,178.67 L 432.08,178.89 L 433.17,179.12 L 434.25,179.35 L 435.33,179.60 L 436.42,179.84 L 437.50,180.10 L 438.58,180.36 L 439.67,180.63 L 440.75,180.91 L 441.83,181.19 L 442.92,181.48 L 444.00,181.77 L 445.08,182.07 L 446.17,182.38 L 447.25,182.69 L 448.33,183.00 L 449.42,183.32 L 450.50,183.64 L 451.58,183.97 L 452.67,184.31 L 453.75,184.64 L 454.83,184.98 L 455.92,185.33 L 457.00,185.67 L 458.08,186.02 L 459.17,186.38 L 460.25,186.73 L 461.33,187.09 L 462.42,187.45 L 463.50,187.81 L 464.58,188.17 L 465.67,188.54 L 466.75,188.90 L 467.83,189.27 L 468.92,189.63 L 470.00,190.00 L 471.08,190.37 L 472.17,190.73 L 473.25,191.10 L 474.33,191.46 L 475.42,191.83 L 476.50,192.19 L 477.58,192.55 L 478.67,192.91 L 479.75,193.27 L 480.83,193.62 L 481.92,193.98 L 483.00,194.33 L 484.08,194.67 L 485.17,195.02 L 486.25,195.36 L 487.33,195.69 L 488.42,196.03 L 489.50,196.36 L 490.58,196.68 L 491.67,197.00 L 492.75,197.31 L 493.83,197.62 L 494.92,197.93 L 496.00,198.23 L 497.08,198.52 L 498.17,198.81 L 499.25,199.09 L 500.33,199.37 L 501.42,199.64 L 502.50,199.90 L 503.58,200.16 L 504.67,200.40 L 505.75,200.65 L 506.83,200.88 L 507.92,201.11 L 509.00,201.33 L 510.08,201.54 L 511.17,201.74 L 512.25,201.94 L 513.33,202.12 L 514.42,202.30 L 515.50,202.47 L 516.58,202.64 L 517.67,202.79 L 518.75,202.93 L 519.83,203.07 L 520.92,203.20 L 522.00,203.31 L 523.08,203.42 L 524.17,203.52 L 525.25,203.61 L 526.33,203.69 L 527.42,203.77 L 528.50,203.83 L 529.58,203.88 L 530.67,203.92 L 531.75,203.96 L 532.83,203.98 L 533.92,204.00 L 535.00,204.00 L 536.08,204.00 L 537.17,203.98 L 538.25,203.96 L 539.33,203.92 L 540.42,203.88 L 541.50,203.83 L 542.58,203.77 L 543.67,203.69 L 544.75,203.61 L 545.83,203.52 L 546.92,203.42 L 548.00,203.31 L 549.08,203.20 L 550.17,203.07 L 551.25,202.93 L 552.33,202.79 L 553.42,202.64 L 554.50,202.47 L 555.58,202.30 L 556.67,202.12 L 557.75,201.94 L 558.83,201.74 L 559.92,201.54 L 561.00,201.33 L 562.08,201.11 L 563.17,200.88 L 564.25,200.65 L 565.33,200.40 L 566.42,200.16 L 567.50,199.90 L 568.58,199.64 L 569.67,199.37 L 570.75,199.09 L 571.83,198.81 L 572.92,198.52 L 574.00,198.23 L 575.08,197.93 L 576.17,197.62 L 577.25,197.31 L 578.33,197.00 L 579.42,196.68 L 580.50,196.36 L 581.58,196.03 L 582.67,195.69 L 583.75,195.36 L 584.83,195.02 L 585.92,194.67 L 587.00,194.33 L 588.08,193.98 L 589.17,193.62 L 590.25,193.27 L 591.33,192.91 L 592.42,192.55 L 593.50,192.19 L 594.58,191.83 L 595.67,191.46 L 596.75,191.10 L 597.83,190.73 L 598.92,190.37 L 600.00,190.00 L 601.08,189.63 L 602.17,189.27 L 603.25,188.90 L 604.33,188.54 L 605.42,188.17 L 606.50,187.81 L 607.58,187.45 L 608.67,187.09 L 609.75,186.73 L 610.83,186.38 L 611.92,186.02 L 613.00,185.67 L 614.08,185.33 L 615.17,184.98 L 616.25,184.64 L 617.33,184.31 L 618.42,183.97 L 619.50,183.64 L 620.58,183.32 L 621.67,183.00 L 622.75,182.69 L 623.83,182.38 L 624.92,182.07 L 626.00,181.77 L 627.08,181.48 L 628.17,181.19 L 629.25,180.91 L 630.33,180.63 L 631.42,180.36 L 632.50,180.10 L 633.58,179.84 L 634.67,179.60 L 635.75,179.35 L 636.83,179.12 L 637.92,178.89 L 639.00,178.67 L 640.08,178.46 L 641.17,178.26 L 642.25,178.06 L 643.33,177.88 L 644.42,177.70 L 645.50,177.53 L 646.58,177.36 L 647.67,177.21 L 648.75,177.07 L 649.83,176.93 L 650.92,176.80 L 652.00,176.69 L 653.08,176.58 L 654.17,176.48 L 655.25,176.39 L 656.33,176.31 L 657.42,176.23 L 658.50,176.17 L 659.58,176.12 L 660.67,176.08 L 661.75,176.04 L 662.83,176.02 L 663.92,176.00 L 665.00,176.00 L 666.08,176.00 L 667.17,176.02 L 668.25,176.04 L 669.33,176.08 L 670.42,176.12 L 671.50,176.17 L 672.58,176.23 L 673.67,176.31 L 674.75,176.39 L 675.83,176.48 L 676.92,176.58 L 678.00,176.69 L 679.08,176.80 L 680.17,176.93 L 681.25,177.07 L 682.33,177.21 L 683.42,177.36 L 684.50,177.53 L 685.58,177.70 L 686.67,177.88 L 687.75,178.06 L 688.83,178.26 L 689.92,178.46 L 691.00,178.67 L 692.08,178.89 L 693.17,179.12 L 694.25,179.35 L 695.33,179.60 L 696.42,179.84 L 697.50,180.10 L 698.58,180.36 L 699.67,180.63 L 700.75,180.91 L 701.83,181.19 L 702.92,181.48 L 704.00,181.77 L 705.08,182.07 L 706.17,182.38 L 707.25,182.69 L 708.33,183.00 L 709.42,183.32 L 710.50,183.64 L 711.58,183.97 L 712.67,184.31 L 713.75,184.64 L 714.83,184.98 L 715.92,185.33 L 717.00,185.67 L 718.08,186.02 L 719.17,186.38 L 720.25,186.73 L 721.33,187.09 L 722.42,187.45 L 723.50,187.81 L 724.58,188.17 L 725.67,188.54 L 726.75,188.90 L 727.83,189.27 L 728.92,189.63 L 730.00,190.00 L 731.08,190.37 L 732.17,190.73 L 733.25,191.10 L 734.33,191.46 L 735.42,191.83 L 736.50,192.19 L 737.58,192.55 L 738.67,192.91 L 739.75,193.27 L 740.83,193.62 L 741.92,193.98 L 743.00,194.33 L 744.08,194.67 L 745.17,195.02 L 746.25,195.36 L 747.33,195.69 L 748.42,196.03 L 749.50,196.36 L 750.58,196.68 L 751.67,197.00 L 752.75,197.31 L 753.83,197.62 L 754.92,197.93 L 756.00,198.23 L 757.08,198.52 L 758.17,198.81 L 759.25,199.09 L 760.33,199.37 L 761.42,199.64 L 762.50,199.90 L 763.58,200.16 L 764.67,200.40 L 765.75,200.65 L 766.83,200.88 L 767.92,201.11 L 769.00,201.33 L 770.08,201.54 L 771.17,201.74 L 772.25,201.94 L 773.33,202.12 L 774.42,202.30 L 775.50,202.47 L 776.58,202.64 L 777.67,202.79 L 778.75,202.93 L 779.83,203.07 L 780.92,203.20 L 782.00,203.31 L 783.08,203.42 L 784.17,203.52 L 785.25,203.61 L 786.33,203.69 L 787.42,203.77 L 788.50,203.83 L 789.58,203.88 L 790.67,203.92 L 791.75,203.96 L 792.83,203.98 L 793.92,204.00 L 795.00,204.00 L 796.08,204.00 L 797.17,203.98 L 798.25,203.96 L 799.33,203.92 L 800.42,203.88 L 801.50,203.83 L 802.58,203.77 L 803.67,203.69 L 804.75,203.61 L 805.83,203.52 L 806.92,203.42 L 808.00,203.31 L 809.08,203.20 L 810.17,203.07 L 811.25,202.93 L 812.33,202.79 L 813.42,202.64 L 814.50,202.47 L 815.58,202.30 L 816.67,202.12 L 817.75,201.94 L 818.83,201.74 L 819.92,201.54 L 821.00,201.33 L 822.08,201.11 L 823.17,200.88 L 824.25,200.65 L 825.33,200.40 L 826.42,200.16 L 827.50,199.90 L 828.58,199.64 L 829.67,199.37 L 830.75,199.09 L 831.83,198.81 L 832.92,198.52 L 834.00,198.23 L 835.08,197.93 L 836.17,197.62 L 837.25,197.31 L 838.33,197.00 L 839.42,196.68 L 840.50,196.36 L 841.58,196.03 L 842.67,195.69 L 843.75,195.36 L 844.83,195.02 L 845.92,194.67 L 847.00,194.33 L 848.08,193.98 L 849.17,193.62 L 850.25,193.27 L 851.33,192.91 L 852.42,192.55 L 853.50,192.19 L 854.58,191.83 L 855.67,191.46 L 856.75,191.10 L 857.83,190.73 L 858.92,190.37 L 860.00,190.00" fill="none" stroke="#34d399" stroke-width="1.4" opacity="0.75"/>
<text x="700" y="70" font-family="sans-serif" font-size="11" fill="#34d399">harmonis 3</text>
<path d="M 80.00,190.00 L 81.08,189.63 L 82.17,189.27 L 83.25,188.90 L 84.33,188.54 L 85.42,188.18 L 86.50,187.83 L 87.58,187.47 L 88.67,187.13 L 89.75,186.79 L 90.83,186.45 L 91.92,186.12 L 93.00,185.80 L 94.08,185.49 L 95.17,185.18 L 96.25,184.89 L 97.33,184.60 L 98.42,184.33 L 99.50,184.06 L 100.58,183.81 L 101.67,183.57 L 102.75,183.34 L 103.83,183.12 L 104.92,182.92 L 106.00,182.73 L 107.08,182.55 L 108.17,182.39 L 109.25,182.24 L 110.33,182.11 L 111.42,181.99 L 112.50,181.89 L 113.58,181.80 L 114.67,181.73 L 115.75,181.67 L 116.83,181.63 L 117.92,181.61 L 119.00,181.60 L 120.08,181.61 L 121.17,181.63 L 122.25,181.67 L 123.33,181.73 L 124.42,181.80 L 125.50,181.89 L 126.58,181.99 L 127.67,182.11 L 128.75,182.24 L 129.83,182.39 L 130.92,182.55 L 132.00,182.73 L 133.08,182.92 L 134.17,183.12 L 135.25,183.34 L 136.33,183.57 L 137.42,183.81 L 138.50,184.06 L 139.58,184.33 L 140.67,184.60 L 141.75,184.89 L 142.83,185.18 L 143.92,185.49 L 145.00,185.80 L 146.08,186.12 L 147.17,186.45 L 148.25,186.79 L 149.33,187.13 L 150.42,187.47 L 151.50,187.83 L 152.58,188.18 L 153.67,188.54 L 154.75,188.90 L 155.83,189.27 L 156.92,189.63 L 158.00,190.00 L 159.08,190.37 L 160.17,190.73 L 161.25,191.10 L 162.33,191.46 L 163.42,191.82 L 164.50,192.17 L 165.58,192.53 L 166.67,192.87 L 167.75,193.21 L 168.83,193.55 L 169.92,193.88 L 171.00,194.20 L 172.08,194.51 L 173.17,194.82 L 174.25,195.11 L 175.33,195.40 L 176.42,195.67 L 177.50,195.94 L 178.58,196.19 L 179.67,196.43 L 180.75,196.66 L 181.83,196.88 L 182.92,197.08 L 184.00,197.27 L 185.08,197.45 L 186.17,197.61 L 187.25,197.76 L 188.33,197.89 L 189.42,198.01 L 190.50,198.11 L 191.58,198.20 L 192.67,198.27 L 193.75,198.33 L 194.83,198.37 L 195.92,198.39 L 197.00,198.40 L 198.08,198.39 L 199.17,198.37 L 200.25,198.33 L 201.33,198.27 L 202.42,198.20 L 203.50,198.11 L 204.58,198.01 L 205.67,197.89 L 206.75,197.76 L 207.83,197.61 L 208.92,197.45 L 210.00,197.27 L 211.08,197.08 L 212.17,196.88 L 213.25,196.66 L 214.33,196.43 L 215.42,196.19 L 216.50,195.94 L 217.58,195.67 L 218.67,195.40 L 219.75,195.11 L 220.83,194.82 L 221.92,194.51 L 223.00,194.20 L 224.08,193.88 L 225.17,193.55 L 226.25,193.21 L 227.33,192.87 L 228.42,192.53 L 229.50,192.17 L 230.58,191.82 L 231.67,191.46 L 232.75,191.10 L 233.83,190.73 L 234.92,190.37 L 236.00,190.00 L 237.08,189.63 L 238.17,189.27 L 239.25,188.90 L 240.33,188.54 L 241.42,188.18 L 242.50,187.83 L 243.58,187.47 L 244.67,187.13 L 245.75,186.79 L 246.83,186.45 L 247.92,186.12 L 249.00,185.80 L 250.08,185.49 L 251.17,185.18 L 252.25,184.89 L 253.33,184.60 L 254.42,184.33 L 255.50,184.06 L 256.58,183.81 L 257.67,183.57 L 258.75,183.34 L 259.83,183.12 L 260.92,182.92 L 262.00,182.73 L 263.08,182.55 L 264.17,182.39 L 265.25,182.24 L 266.33,182.11 L 267.42,181.99 L 268.50,181.89 L 269.58,181.80 L 270.67,181.73 L 271.75,181.67 L 272.83,181.63 L 273.92,181.61 L 275.00,181.60 L 276.08,181.61 L 277.17,181.63 L 278.25,181.67 L 279.33,181.73 L 280.42,181.80 L 281.50,181.89 L 282.58,181.99 L 283.67,182.11 L 284.75,182.24 L 285.83,182.39 L 286.92,182.55 L 288.00,182.73 L 289.08,182.92 L 290.17,183.12 L 291.25,183.34 L 292.33,183.57 L 293.42,183.81 L 294.50,184.06 L 295.58,184.33 L 296.67,184.60 L 297.75,184.89 L 298.83,185.18 L 299.92,185.49 L 301.00,185.80 L 302.08,186.12 L 303.17,186.45 L 304.25,186.79 L 305.33,187.13 L 306.42,187.47 L 307.50,187.83 L 308.58,188.18 L 309.67,188.54 L 310.75,188.90 L 311.83,189.27 L 312.92,189.63 L 314.00,190.00 L 315.08,190.37 L 316.17,190.73 L 317.25,191.10 L 318.33,191.46 L 319.42,191.82 L 320.50,192.17 L 321.58,192.53 L 322.67,192.87 L 323.75,193.21 L 324.83,193.55 L 325.92,193.88 L 327.00,194.20 L 328.08,194.51 L 329.17,194.82 L 330.25,195.11 L 331.33,195.40 L 332.42,195.67 L 333.50,195.94 L 334.58,196.19 L 335.67,196.43 L 336.75,196.66 L 337.83,196.88 L 338.92,197.08 L 340.00,197.27 L 341.08,197.45 L 342.17,197.61 L 343.25,197.76 L 344.33,197.89 L 345.42,198.01 L 346.50,198.11 L 347.58,198.20 L 348.67,198.27 L 349.75,198.33 L 350.83,198.37 L 351.92,198.39 L 353.00,198.40 L 354.08,198.39 L 355.17,198.37 L 356.25,198.33 L 357.33,198.27 L 358.42,198.20 L 359.50,198.11 L 360.58,198.01 L 361.67,197.89 L 362.75,197.76 L 363.83,197.61 L 364.92,197.45 L 366.00,197.27 L 367.08,197.08 L 368.17,196.88 L 369.25,196.66 L 370.33,196.43 L 371.42,196.19 L 372.50,195.94 L 373.58,195.67 L 374.67,195.40 L 375.75,195.11 L 376.83,194.82 L 377.92,194.51 L 379.00,194.20 L 380.08,193.88 L 381.17,193.55 L 382.25,193.21 L 383.33,192.87 L 384.42,192.53 L 385.50,192.17 L 386.58,191.82 L 387.67,191.46 L 388.75,191.10 L 389.83,190.73 L 390.92,190.37 L 392.00,190.00 L 393.08,189.63 L 394.17,189.27 L 395.25,188.90 L 396.33,188.54 L 397.42,188.18 L 398.50,187.83 L 399.58,187.47 L 400.67,187.13 L 401.75,186.79 L 402.83,186.45 L 403.92,186.12 L 405.00,185.80 L 406.08,185.49 L 407.17,185.18 L 408.25,184.89 L 409.33,184.60 L 410.42,184.33 L 411.50,184.06 L 412.58,183.81 L 413.67,183.57 L 414.75,183.34 L 415.83,183.12 L 416.92,182.92 L 418.00,182.73 L 419.08,182.55 L 420.17,182.39 L 421.25,182.24 L 422.33,182.11 L 423.42,181.99 L 424.50,181.89 L 425.58,181.80 L 426.67,181.73 L 427.75,181.67 L 428.83,181.63 L 429.92,181.61 L 431.00,181.60 L 432.08,181.61 L 433.17,181.63 L 434.25,181.67 L 435.33,181.73 L 436.42,181.80 L 437.50,181.89 L 438.58,181.99 L 439.67,182.11 L 440.75,182.24 L 441.83,182.39 L 442.92,182.55 L 444.00,182.73 L 445.08,182.92 L 446.17,183.12 L 447.25,183.34 L 448.33,183.57 L 449.42,183.81 L 450.50,184.06 L 451.58,184.33 L 452.67,184.60 L 453.75,184.89 L 454.83,185.18 L 455.92,185.49 L 457.00,185.80 L 458.08,186.12 L 459.17,186.45 L 460.25,186.79 L 461.33,187.13 L 462.42,187.47 L 463.50,187.83 L 464.58,188.18 L 465.67,188.54 L 466.75,188.90 L 467.83,189.27 L 468.92,189.63 L 470.00,190.00 L 471.08,190.37 L 472.17,190.73 L 473.25,191.10 L 474.33,191.46 L 475.42,191.82 L 476.50,192.17 L 477.58,192.53 L 478.67,192.87 L 479.75,193.21 L 480.83,193.55 L 481.92,193.88 L 483.00,194.20 L 484.08,194.51 L 485.17,194.82 L 486.25,195.11 L 487.33,195.40 L 488.42,195.67 L 489.50,195.94 L 490.58,196.19 L 491.67,196.43 L 492.75,196.66 L 493.83,196.88 L 494.92,197.08 L 496.00,197.27 L 497.08,197.45 L 498.17,197.61 L 499.25,197.76 L 500.33,197.89 L 501.42,198.01 L 502.50,198.11 L 503.58,198.20 L 504.67,198.27 L 505.75,198.33 L 506.83,198.37 L 507.92,198.39 L 509.00,198.40 L 510.08,198.39 L 511.17,198.37 L 512.25,198.33 L 513.33,198.27 L 514.42,198.20 L 515.50,198.11 L 516.58,198.01 L 517.67,197.89 L 518.75,197.76 L 519.83,197.61 L 520.92,197.45 L 522.00,197.27 L 523.08,197.08 L 524.17,196.88 L 525.25,196.66 L 526.33,196.43 L 527.42,196.19 L 528.50,195.94 L 529.58,195.67 L 530.67,195.40 L 531.75,195.11 L 532.83,194.82 L 533.92,194.51 L 535.00,194.20 L 536.08,193.88 L 537.17,193.55 L 538.25,193.21 L 539.33,192.87 L 540.42,192.53 L 541.50,192.17 L 542.58,191.82 L 543.67,191.46 L 544.75,191.10 L 545.83,190.73 L 546.92,190.37 L 548.00,190.00 L 549.08,189.63 L 550.17,189.27 L 551.25,188.90 L 552.33,188.54 L 553.42,188.18 L 554.50,187.83 L 555.58,187.47 L 556.67,187.13 L 557.75,186.79 L 558.83,186.45 L 559.92,186.12 L 561.00,185.80 L 562.08,185.49 L 563.17,185.18 L 564.25,184.89 L 565.33,184.60 L 566.42,184.33 L 567.50,184.06 L 568.58,183.81 L 569.67,183.57 L 570.75,183.34 L 571.83,183.12 L 572.92,182.92 L 574.00,182.73 L 575.08,182.55 L 576.17,182.39 L 577.25,182.24 L 578.33,182.11 L 579.42,181.99 L 580.50,181.89 L 581.58,181.80 L 582.67,181.73 L 583.75,181.67 L 584.83,181.63 L 585.92,181.61 L 587.00,181.60 L 588.08,181.61 L 589.17,181.63 L 590.25,181.67 L 591.33,181.73 L 592.42,181.80 L 593.50,181.89 L 594.58,181.99 L 595.67,182.11 L 596.75,182.24 L 597.83,182.39 L 598.92,182.55 L 600.00,182.73 L 601.08,182.92 L 602.17,183.12 L 603.25,183.34 L 604.33,183.57 L 605.42,183.81 L 606.50,184.06 L 607.58,184.33 L 608.67,184.60 L 609.75,184.89 L 610.83,185.18 L 611.92,185.49 L 613.00,185.80 L 614.08,186.12 L 615.17,186.45 L 616.25,186.79 L 617.33,187.13 L 618.42,187.47 L 619.50,187.83 L 620.58,188.18 L 621.67,188.54 L 622.75,188.90 L 623.83,189.27 L 624.92,189.63 L 626.00,190.00 L 627.08,190.37 L 628.17,190.73 L 629.25,191.10 L 630.33,191.46 L 631.42,191.82 L 632.50,192.17 L 633.58,192.53 L 634.67,192.87 L 635.75,193.21 L 636.83,193.55 L 637.92,193.88 L 639.00,194.20 L 640.08,194.51 L 641.17,194.82 L 642.25,195.11 L 643.33,195.40 L 644.42,195.67 L 645.50,195.94 L 646.58,196.19 L 647.67,196.43 L 648.75,196.66 L 649.83,196.88 L 650.92,197.08 L 652.00,197.27 L 653.08,197.45 L 654.17,197.61 L 655.25,197.76 L 656.33,197.89 L 657.42,198.01 L 658.50,198.11 L 659.58,198.20 L 660.67,198.27 L 661.75,198.33 L 662.83,198.37 L 663.92,198.39 L 665.00,198.40 L 666.08,198.39 L 667.17,198.37 L 668.25,198.33 L 669.33,198.27 L 670.42,198.20 L 671.50,198.11 L 672.58,198.01 L 673.67,197.89 L 674.75,197.76 L 675.83,197.61 L 676.92,197.45 L 678.00,197.27 L 679.08,197.08 L 680.17,196.88 L 681.25,196.66 L 682.33,196.43 L 683.42,196.19 L 684.50,195.94 L 685.58,195.67 L 686.67,195.40 L 687.75,195.11 L 688.83,194.82 L 689.92,194.51 L 691.00,194.20 L 692.08,193.88 L 693.17,193.55 L 694.25,193.21 L 695.33,192.87 L 696.42,192.53 L 697.50,192.17 L 698.58,191.82 L 699.67,191.46 L 700.75,191.10 L 701.83,190.73 L 702.92,190.37 L 704.00,190.00 L 705.08,189.63 L 706.17,189.27 L 707.25,188.90 L 708.33,188.54 L 709.42,188.18 L 710.50,187.83 L 711.58,187.47 L 712.67,187.13 L 713.75,186.79 L 714.83,186.45 L 715.92,186.12 L 717.00,185.80 L 718.08,185.49 L 719.17,185.18 L 720.25,184.89 L 721.33,184.60 L 722.42,184.33 L 723.50,184.06 L 724.58,183.81 L 725.67,183.57 L 726.75,183.34 L 727.83,183.12 L 728.92,182.92 L 730.00,182.73 L 731.08,182.55 L 732.17,182.39 L 733.25,182.24 L 734.33,182.11 L 735.42,181.99 L 736.50,181.89 L 737.58,181.80 L 738.67,181.73 L 739.75,181.67 L 740.83,181.63 L 741.92,181.61 L 743.00,181.60 L 744.08,181.61 L 745.17,181.63 L 746.25,181.67 L 747.33,181.73 L 748.42,181.80 L 749.50,181.89 L 750.58,181.99 L 751.67,182.11 L 752.75,182.24 L 753.83,182.39 L 754.92,182.55 L 756.00,182.73 L 757.08,182.92 L 758.17,183.12 L 759.25,183.34 L 760.33,183.57 L 761.42,183.81 L 762.50,184.06 L 763.58,184.33 L 764.67,184.60 L 765.75,184.89 L 766.83,185.18 L 767.92,185.49 L 769.00,185.80 L 770.08,186.12 L 771.17,186.45 L 772.25,186.79 L 773.33,187.13 L 774.42,187.47 L 775.50,187.83 L 776.58,188.18 L 777.67,188.54 L 778.75,188.90 L 779.83,189.27 L 780.92,189.63 L 782.00,190.00 L 783.08,190.37 L 784.17,190.73 L 785.25,191.10 L 786.33,191.46 L 787.42,191.82 L 788.50,192.17 L 789.58,192.53 L 790.67,192.87 L 791.75,193.21 L 792.83,193.55 L 793.92,193.88 L 795.00,194.20 L 796.08,194.51 L 797.17,194.82 L 798.25,195.11 L 799.33,195.40 L 800.42,195.67 L 801.50,195.94 L 802.58,196.19 L 803.67,196.43 L 804.75,196.66 L 805.83,196.88 L 806.92,197.08 L 808.00,197.27 L 809.08,197.45 L 810.17,197.61 L 811.25,197.76 L 812.33,197.89 L 813.42,198.01 L 814.50,198.11 L 815.58,198.20 L 816.67,198.27 L 817.75,198.33 L 818.83,198.37 L 819.92,198.39 L 821.00,198.40 L 822.08,198.39 L 823.17,198.37 L 824.25,198.33 L 825.33,198.27 L 826.42,198.20 L 827.50,198.11 L 828.58,198.01 L 829.67,197.89 L 830.75,197.76 L 831.83,197.61 L 832.92,197.45 L 834.00,197.27 L 835.08,197.08 L 836.17,196.88 L 837.25,196.66 L 838.33,196.43 L 839.42,196.19 L 840.50,195.94 L 841.58,195.67 L 842.67,195.40 L 843.75,195.11 L 844.83,194.82 L 845.92,194.51 L 847.00,194.20 L 848.08,193.88 L 849.17,193.55 L 850.25,193.21 L 851.33,192.87 L 852.42,192.53 L 853.50,192.17 L 854.58,191.82 L 855.67,191.46 L 856.75,191.10 L 857.83,190.73 L 858.92,190.37 L 860.00,190.00" fill="none" stroke="#fbbf24" stroke-width="1.4" opacity="0.75"/>
<text x="700" y="87" font-family="sans-serif" font-size="11" fill="#fbbf24">harmonis 5</text>
<path d="M 80.00,190.00 L 81.08,189.63 L 82.17,189.27 L 83.25,188.91 L 84.33,188.55 L 85.42,188.20 L 86.50,187.85 L 87.58,187.51 L 88.67,187.18 L 89.75,186.87 L 90.83,186.56 L 91.92,186.26 L 93.00,185.99 L 94.08,185.72 L 95.17,185.47 L 96.25,185.24 L 97.33,185.03 L 98.42,184.83 L 99.50,184.65 L 100.58,184.50 L 101.67,184.36 L 102.75,184.25 L 103.83,184.15 L 104.92,184.08 L 106.00,184.03 L 107.08,184.01 L 108.17,184.00 L 109.25,184.02 L 110.33,184.06 L 111.42,184.12 L 112.50,184.20 L 113.58,184.31 L 114.67,184.44 L 115.75,184.58 L 116.83,184.75 L 117.92,184.94 L 119.00,185.15 L 120.08,185.37 L 121.17,185.61 L 122.25,185.87 L 123.33,186.14 L 124.42,186.43 L 125.50,186.73 L 126.58,187.05 L 127.67,187.37 L 128.75,187.70 L 129.83,188.05 L 130.92,188.40 L 132.00,188.75 L 133.08,189.11 L 134.17,189.48 L 135.25,189.84 L 136.33,190.21 L 137.42,190.58 L 138.50,190.94 L 139.58,191.30 L 140.67,191.65 L 141.75,192.00 L 142.83,192.34 L 143.92,192.68 L 145.00,193.00 L 146.08,193.31 L 147.17,193.61 L 148.25,193.90 L 149.33,194.17 L 150.42,194.42 L 151.50,194.66 L 152.58,194.88 L 153.67,195.09 L 154.75,195.27 L 155.83,195.44 L 156.92,195.58 L 158.00,195.71 L 159.08,195.81 L 160.17,195.89 L 161.25,195.95 L 162.33,195.99 L 163.42,196.00 L 164.50,195.99 L 165.58,195.96 L 166.67,195.91 L 167.75,195.83 L 168.83,195.74 L 169.92,195.62 L 171.00,195.48 L 172.08,195.32 L 173.17,195.14 L 174.25,194.94 L 175.33,194.73 L 176.42,194.49 L 177.50,194.24 L 178.58,193.98 L 179.67,193.69 L 180.75,193.40 L 181.83,193.09 L 182.92,192.77 L 184.00,192.44 L 185.08,192.10 L 186.17,191.75 L 187.25,191.40 L 188.33,191.04 L 189.42,190.68 L 190.50,190.31 L 191.58,189.95 L 192.67,189.58 L 193.75,189.22 L 194.83,188.86 L 195.92,188.50 L 197.00,188.15 L 198.08,187.80 L 199.17,187.46 L 200.25,187.14 L 201.33,186.82 L 202.42,186.52 L 203.50,186.22 L 204.58,185.95 L 205.67,185.68 L 206.75,185.44 L 207.83,185.21 L 208.92,185.00 L 210.00,184.80 L 211.08,184.63 L 212.17,184.48 L 213.25,184.34 L 214.33,184.23 L 215.42,184.14 L 216.50,184.07 L 217.58,184.03 L 218.67,184.00 L 219.75,184.00 L 220.83,184.02 L 221.92,184.07 L 223.00,184.13 L 224.08,184.22 L 225.17,184.33 L 226.25,184.46 L 227.33,184.61 L 228.42,184.78 L 229.50,184.97 L 230.58,185.18 L 231.67,185.40 L 232.75,185.65 L 233.83,185.91 L 234.92,186.18 L 236.00,186.47 L 237.08,186.78 L 238.17,187.09 L 239.25,187.42 L 240.33,187.75 L 241.42,188.10 L 242.50,188.45 L 243.58,188.80 L 244.67,189.16 L 245.75,189.53 L 246.83,189.90 L 247.92,190.26 L 249.00,190.63 L 250.08,190.99 L 251.17,191.35 L 252.25,191.70 L 253.33,192.05 L 254.42,192.39 L 255.50,192.72 L 256.58,193.05 L 257.67,193.36 L 258.75,193.65 L 259.83,193.94 L 260.92,194.21 L 262.00,194.46 L 263.08,194.70 L 264.17,194.91 L 265.25,195.12 L 266.33,195.30 L 267.42,195.46 L 268.50,195.60 L 269.58,195.72 L 270.67,195.82 L 271.75,195.90 L 272.83,195.96 L 273.92,195.99 L 275.00,196.00 L 276.08,195.99 L 277.17,195.96 L 278.25,195.90 L 279.33,195.82 L 280.42,195.72 L 281.50,195.60 L 282.58,195.46 L 283.67,195.30 L 284.75,195.12 L 285.83,194.91 L 286.92,194.70 L 288.00,194.46 L 289.08,194.21 L 290.17,193.94 L 291.25,193.65 L 292.33,193.36 L 293.42,193.05 L 294.50,192.72 L 295.58,192.39 L 296.67,192.05 L 297.75,191.70 L 298.83,191.35 L 299.92,190.99 L 301.00,190.63 L 302.08,190.26 L 303.17,189.90 L 304.25,189.53 L 305.33,189.16 L 306.42,188.80 L 307.50,188.45 L 308.58,188.10 L 309.67,187.75 L 310.75,187.42 L 311.83,187.09 L 312.92,186.78 L 314.00,186.47 L 315.08,186.18 L 316.17,185.91 L 317.25,185.65 L 318.33,185.40 L 319.42,185.18 L 320.50,184.97 L 321.58,184.78 L 322.67,184.61 L 323.75,184.46 L 324.83,184.33 L 325.92,184.22 L 327.00,184.13 L 328.08,184.07 L 329.17,184.02 L 330.25,184.00 L 331.33,184.00 L 332.42,184.03 L 333.50,184.07 L 334.58,184.14 L 335.67,184.23 L 336.75,184.34 L 337.83,184.48 L 338.92,184.63 L 340.00,184.80 L 341.08,185.00 L 342.17,185.21 L 343.25,185.44 L 344.33,185.68 L 345.42,185.95 L 346.50,186.22 L 347.58,186.52 L 348.67,186.82 L 349.75,187.14 L 350.83,187.46 L 351.92,187.80 L 353.00,188.15 L 354.08,188.50 L 355.17,188.86 L 356.25,189.22 L 357.33,189.58 L 358.42,189.95 L 359.50,190.31 L 360.58,190.68 L 361.67,191.04 L 362.75,191.40 L 363.83,191.75 L 364.92,192.10 L 366.00,192.44 L 367.08,192.77 L 368.17,193.09 L 369.25,193.40 L 370.33,193.69 L 371.42,193.98 L 372.50,194.24 L 373.58,194.49 L 374.67,194.73 L 375.75,194.94 L 376.83,195.14 L 377.92,195.32 L 379.00,195.48 L 380.08,195.62 L 381.17,195.74 L 382.25,195.83 L 383.33,195.91 L 384.42,195.96 L 385.50,195.99 L 386.58,196.00 L 387.67,195.99 L 388.75,195.95 L 389.83,195.89 L 390.92,195.81 L 392.00,195.71 L 393.08,195.58 L 394.17,195.44 L 395.25,195.27 L 396.33,195.09 L 397.42,194.88 L 398.50,194.66 L 399.58,194.42 L 400.67,194.17 L 401.75,193.90 L 402.83,193.61 L 403.92,193.31 L 405.00,193.00 L 406.08,192.68 L 407.17,192.34 L 408.25,192.00 L 409.33,191.65 L 410.42,191.30 L 411.50,190.94 L 412.58,190.58 L 413.67,190.21 L 414.75,189.84 L 415.83,189.48 L 416.92,189.11 L 418.00,188.75 L 419.08,188.40 L 420.17,188.05 L 421.25,187.70 L 422.33,187.37 L 423.42,187.05 L 424.50,186.73 L 425.58,186.43 L 426.67,186.14 L 427.75,185.87 L 428.83,185.61 L 429.92,185.37 L 431.00,185.15 L 432.08,184.94 L 433.17,184.75 L 434.25,184.58 L 435.33,184.44 L 436.42,184.31 L 437.50,184.20 L 438.58,184.12 L 439.67,184.06 L 440.75,184.02 L 441.83,184.00 L 442.92,184.01 L 444.00,184.03 L 445.08,184.08 L 446.17,184.15 L 447.25,184.25 L 448.33,184.36 L 449.42,184.50 L 450.50,184.65 L 451.58,184.83 L 452.67,185.03 L 453.75,185.24 L 454.83,185.47 L 455.92,185.72 L 457.00,185.99 L 458.08,186.26 L 459.17,186.56 L 460.25,186.87 L 461.33,187.18 L 462.42,187.51 L 463.50,187.85 L 464.58,188.20 L 465.67,188.55 L 466.75,188.91 L 467.83,189.27 L 468.92,189.63 L 470.00,190.00 L 471.08,190.37 L 472.17,190.73 L 473.25,191.09 L 474.33,191.45 L 475.42,191.80 L 476.50,192.15 L 477.58,192.49 L 478.67,192.82 L 479.75,193.13 L 480.83,193.44 L 481.92,193.74 L 483.00,194.01 L 484.08,194.28 L 485.17,194.53 L 486.25,194.76 L 487.33,194.97 L 488.42,195.17 L 489.50,195.35 L 490.58,195.50 L 491.67,195.64 L 492.75,195.75 L 493.83,195.85 L 494.92,195.92 L 496.00,195.97 L 497.08,195.99 L 498.17,196.00 L 499.25,195.98 L 500.33,195.94 L 501.42,195.88 L 502.50,195.80 L 503.58,195.69 L 504.67,195.56 L 505.75,195.42 L 506.83,195.25 L 507.92,195.06 L 509.00,194.85 L 510.08,194.63 L 511.17,194.39 L 512.25,194.13 L 513.33,193.86 L 514.42,193.57 L 515.50,193.27 L 516.58,192.95 L 517.67,192.63 L 518.75,192.30 L 519.83,191.95 L 520.92,191.60 L 522.00,191.25 L 523.08,190.89 L 524.17,190.52 L 525.25,190.16 L 526.33,189.79 L 527.42,189.42 L 528.50,189.06 L 529.58,188.70 L 530.67,188.35 L 531.75,188.00 L 532.83,187.66 L 533.92,187.32 L 535.00,187.00 L 536.08,186.69 L 537.17,186.39 L 538.25,186.10 L 539.33,185.83 L 540.42,185.58 L 541.50,185.34 L 542.58,185.12 L 543.67,184.91 L 544.75,184.73 L 545.83,184.56 L 546.92,184.42 L 548.00,184.29 L 549.08,184.19 L 550.17,184.11 L 551.25,184.05 L 552.33,184.01 L 553.42,184.00 L 554.50,184.01 L 555.58,184.04 L 556.67,184.09 L 557.75,184.17 L 558.83,184.26 L 559.92,184.38 L 561.00,184.52 L 562.08,184.68 L 563.17,184.86 L 564.25,185.06 L 565.33,185.27 L 566.42,185.51 L 567.50,185.76 L 568.58,186.02 L 569.67,186.31 L 570.75,186.60 L 571.83,186.91 L 572.92,187.23 L 574.00,187.56 L 575.08,187.90 L 576.17,188.25 L 577.25,188.60 L 578.33,188.96 L 579.42,189.32 L 580.50,189.69 L 581.58,190.05 L 582.67,190.42 L 583.75,190.78 L 584.83,191.14 L 585.92,191.50 L 587.00,191.85 L 588.08,192.20 L 589.17,192.54 L 590.25,192.86 L 591.33,193.18 L 592.42,193.48 L 593.50,193.78 L 594.58,194.05 L 595.67,194.32 L 596.75,194.56 L 597.83,194.79 L 598.92,195.00 L 600.00,195.20 L 601.08,195.37 L 602.17,195.52 L 603.25,195.66 L 604.33,195.77 L 605.42,195.86 L 606.50,195.93 L 607.58,195.97 L 608.67,196.00 L 609.75,196.00 L 610.83,195.98 L 611.92,195.93 L 613.00,195.87 L 614.08,195.78 L 615.17,195.67 L 616.25,195.54 L 617.33,195.39 L 618.42,195.22 L 619.50,195.03 L 620.58,194.82 L 621.67,194.60 L 622.75,194.35 L 623.83,194.09 L 624.92,193.82 L 626.00,193.53 L 627.08,193.22 L 628.17,192.91 L 629.25,192.58 L 630.33,192.25 L 631.42,191.90 L 632.50,191.55 L 633.58,191.20 L 634.67,190.84 L 635.75,190.47 L 636.83,190.10 L 637.92,189.74 L 639.00,189.37 L 640.08,189.01 L 641.17,188.65 L 642.25,188.30 L 643.33,187.95 L 644.42,187.61 L 645.50,187.28 L 646.58,186.95 L 647.67,186.64 L 648.75,186.35 L 649.83,186.06 L 650.92,185.79 L 652.00,185.54 L 653.08,185.30 L 654.17,185.09 L 655.25,184.88 L 656.33,184.70 L 657.42,184.54 L 658.50,184.40 L 659.58,184.28 L 660.67,184.18 L 661.75,184.10 L 662.83,184.04 L 663.92,184.01 L 665.00,184.00 L 666.08,184.01 L 667.17,184.04 L 668.25,184.10 L 669.33,184.18 L 670.42,184.28 L 671.50,184.40 L 672.58,184.54 L 673.67,184.70 L 674.75,184.88 L 675.83,185.09 L 676.92,185.30 L 678.00,185.54 L 679.08,185.79 L 680.17,186.06 L 681.25,186.35 L 682.33,186.64 L 683.42,186.95 L 684.50,187.28 L 685.58,187.61 L 686.67,187.95 L 687.75,188.30 L 688.83,188.65 L 689.92,189.01 L 691.00,189.37 L 692.08,189.74 L 693.17,190.10 L 694.25,190.47 L 695.33,190.84 L 696.42,191.20 L 697.50,191.55 L 698.58,191.90 L 699.67,192.25 L 700.75,192.58 L 701.83,192.91 L 702.92,193.22 L 704.00,193.53 L 705.08,193.82 L 706.17,194.09 L 707.25,194.35 L 708.33,194.60 L 709.42,194.82 L 710.50,195.03 L 711.58,195.22 L 712.67,195.39 L 713.75,195.54 L 714.83,195.67 L 715.92,195.78 L 717.00,195.87 L 718.08,195.93 L 719.17,195.98 L 720.25,196.00 L 721.33,196.00 L 722.42,195.97 L 723.50,195.93 L 724.58,195.86 L 725.67,195.77 L 726.75,195.66 L 727.83,195.52 L 728.92,195.37 L 730.00,195.20 L 731.08,195.00 L 732.17,194.79 L 733.25,194.56 L 734.33,194.32 L 735.42,194.05 L 736.50,193.78 L 737.58,193.48 L 738.67,193.18 L 739.75,192.86 L 740.83,192.54 L 741.92,192.20 L 743.00,191.85 L 744.08,191.50 L 745.17,191.14 L 746.25,190.78 L 747.33,190.42 L 748.42,190.05 L 749.50,189.69 L 750.58,189.32 L 751.67,188.96 L 752.75,188.60 L 753.83,188.25 L 754.92,187.90 L 756.00,187.56 L 757.08,187.23 L 758.17,186.91 L 759.25,186.60 L 760.33,186.31 L 761.42,186.02 L 762.50,185.76 L 763.58,185.51 L 764.67,185.27 L 765.75,185.06 L 766.83,184.86 L 767.92,184.68 L 769.00,184.52 L 770.08,184.38 L 771.17,184.26 L 772.25,184.17 L 773.33,184.09 L 774.42,184.04 L 775.50,184.01 L 776.58,184.00 L 777.67,184.01 L 778.75,184.05 L 779.83,184.11 L 780.92,184.19 L 782.00,184.29 L 783.08,184.42 L 784.17,184.56 L 785.25,184.73 L 786.33,184.91 L 787.42,185.12 L 788.50,185.34 L 789.58,185.58 L 790.67,185.83 L 791.75,186.10 L 792.83,186.39 L 793.92,186.69 L 795.00,187.00 L 796.08,187.32 L 797.17,187.66 L 798.25,188.00 L 799.33,188.35 L 800.42,188.70 L 801.50,189.06 L 802.58,189.42 L 803.67,189.79 L 804.75,190.16 L 805.83,190.52 L 806.92,190.89 L 808.00,191.25 L 809.08,191.60 L 810.17,191.95 L 811.25,192.30 L 812.33,192.63 L 813.42,192.95 L 814.50,193.27 L 815.58,193.57 L 816.67,193.86 L 817.75,194.13 L 818.83,194.39 L 819.92,194.63 L 821.00,194.85 L 822.08,195.06 L 823.17,195.25 L 824.25,195.42 L 825.33,195.56 L 826.42,195.69 L 827.50,195.80 L 828.58,195.88 L 829.67,195.94 L 830.75,195.98 L 831.83,196.00 L 832.92,195.99 L 834.00,195.97 L 835.08,195.92 L 836.17,195.85 L 837.25,195.75 L 838.33,195.64 L 839.42,195.50 L 840.50,195.35 L 841.58,195.17 L 842.67,194.97 L 843.75,194.76 L 844.83,194.53 L 845.92,194.28 L 847.00,194.01 L 848.08,193.74 L 849.17,193.44 L 850.25,193.13 L 851.33,192.82 L 852.42,192.49 L 853.50,192.15 L 854.58,191.80 L 855.67,191.45 L 856.75,191.09 L 857.83,190.73 L 858.92,190.37 L 860.00,190.00" fill="none" stroke="#f87171" stroke-width="1.4" opacity="0.75"/>
<text x="700" y="104" font-family="sans-serif" font-size="11" fill="#f87171">harmonis 7</text>
<path d="M 80.00,190.00 L 81.08,189.63 L 82.17,189.27 L 83.25,188.91 L 84.33,188.56 L 85.42,188.21 L 86.50,187.88 L 87.58,187.56 L 88.67,187.26 L 89.75,186.97 L 90.83,186.70 L 91.92,186.45 L 93.00,186.22 L 94.08,186.02 L 95.17,185.84 L 96.25,185.69 L 97.33,185.56 L 98.42,185.46 L 99.50,185.39 L 100.58,185.35 L 101.67,185.33 L 102.75,185.35 L 103.83,185.39 L 104.92,185.46 L 106.00,185.56 L 107.08,185.69 L 108.17,185.84 L 109.25,186.02 L 110.33,186.22 L 111.42,186.45 L 112.50,186.70 L 113.58,186.97 L 114.67,187.26 L 115.75,187.56 L 116.83,187.88 L 117.92,188.21 L 119.00,188.56 L 120.08,188.91 L 121.17,189.27 L 122.25,189.63 L 123.33,190.00 L 124.42,190.37 L 125.50,190.73 L 126.58,191.09 L 127.67,191.44 L 128.75,191.79 L 129.83,192.12 L 130.92,192.44 L 132.00,192.74 L 133.08,193.03 L 134.17,193.30 L 135.25,193.55 L 136.33,193.78 L 137.42,193.98 L 138.50,194.16 L 139.58,194.31 L 140.67,194.44 L 141.75,194.54 L 142.83,194.61 L 143.92,194.65 L 145.00,194.67 L 146.08,194.65 L 147.17,194.61 L 148.25,194.54 L 149.33,194.44 L 150.42,194.31 L 151.50,194.16 L 152.58,193.98 L 153.67,193.78 L 154.75,193.55 L 155.83,193.30 L 156.92,193.03 L 158.00,192.74 L 159.08,192.44 L 160.17,192.12 L 161.25,191.79 L 162.33,191.44 L 163.42,191.09 L 164.50,190.73 L 165.58,190.37 L 166.67,190.00 L 167.75,189.63 L 168.83,189.27 L 169.92,188.91 L 171.00,188.56 L 172.08,188.21 L 173.17,187.88 L 174.25,187.56 L 175.33,187.26 L 176.42,186.97 L 177.50,186.70 L 178.58,186.45 L 179.67,186.22 L 180.75,186.02 L 181.83,185.84 L 182.92,185.69 L 184.00,185.56 L 185.08,185.46 L 186.17,185.39 L 187.25,185.35 L 188.33,185.33 L 189.42,185.35 L 190.50,185.39 L 191.58,185.46 L 192.67,185.56 L 193.75,185.69 L 194.83,185.84 L 195.92,186.02 L 197.00,186.22 L 198.08,186.45 L 199.17,186.70 L 200.25,186.97 L 201.33,187.26 L 202.42,187.56 L 203.50,187.88 L 204.58,188.21 L 205.67,188.56 L 206.75,188.91 L 207.83,189.27 L 208.92,189.63 L 210.00,190.00 L 211.08,190.37 L 212.17,190.73 L 213.25,191.09 L 214.33,191.44 L 215.42,191.79 L 216.50,192.12 L 217.58,192.44 L 218.67,192.74 L 219.75,193.03 L 220.83,193.30 L 221.92,193.55 L 223.00,193.78 L 224.08,193.98 L 225.17,194.16 L 226.25,194.31 L 227.33,194.44 L 228.42,194.54 L 229.50,194.61 L 230.58,194.65 L 231.67,194.67 L 232.75,194.65 L 233.83,194.61 L 234.92,194.54 L 236.00,194.44 L 237.08,194.31 L 238.17,194.16 L 239.25,193.98 L 240.33,193.78 L 241.42,193.55 L 242.50,193.30 L 243.58,193.03 L 244.67,192.74 L 245.75,192.44 L 246.83,192.12 L 247.92,191.79 L 249.00,191.44 L 250.08,191.09 L 251.17,190.73 L 252.25,190.37 L 253.33,190.00 L 254.42,189.63 L 255.50,189.27 L 256.58,188.91 L 257.67,188.56 L 258.75,188.21 L 259.83,187.88 L 260.92,187.56 L 262.00,187.26 L 263.08,186.97 L 264.17,186.70 L 265.25,186.45 L 266.33,186.22 L 267.42,186.02 L 268.50,185.84 L 269.58,185.69 L 270.67,185.56 L 271.75,185.46 L 272.83,185.39 L 273.92,185.35 L 275.00,185.33 L 276.08,185.35 L 277.17,185.39 L 278.25,185.46 L 279.33,185.56 L 280.42,185.69 L 281.50,185.84 L 282.58,186.02 L 283.67,186.22 L 284.75,186.45 L 285.83,186.70 L 286.92,186.97 L 288.00,187.26 L 289.08,187.56 L 290.17,187.88 L 291.25,188.21 L 292.33,188.56 L 293.42,188.91 L 294.50,189.27 L 295.58,189.63 L 296.67,190.00 L 297.75,190.37 L 298.83,190.73 L 299.92,191.09 L 301.00,191.44 L 302.08,191.79 L 303.17,192.12 L 304.25,192.44 L 305.33,192.74 L 306.42,193.03 L 307.50,193.30 L 308.58,193.55 L 309.67,193.78 L 310.75,193.98 L 311.83,194.16 L 312.92,194.31 L 314.00,194.44 L 315.08,194.54 L 316.17,194.61 L 317.25,194.65 L 318.33,194.67 L 319.42,194.65 L 320.50,194.61 L 321.58,194.54 L 322.67,194.44 L 323.75,194.31 L 324.83,194.16 L 325.92,193.98 L 327.00,193.78 L 328.08,193.55 L 329.17,193.30 L 330.25,193.03 L 331.33,192.74 L 332.42,192.44 L 333.50,192.12 L 334.58,191.79 L 335.67,191.44 L 336.75,191.09 L 337.83,190.73 L 338.92,190.37 L 340.00,190.00 L 341.08,189.63 L 342.17,189.27 L 343.25,188.91 L 344.33,188.56 L 345.42,188.21 L 346.50,187.88 L 347.58,187.56 L 348.67,187.26 L 349.75,186.97 L 350.83,186.70 L 351.92,186.45 L 353.00,186.22 L 354.08,186.02 L 355.17,185.84 L 356.25,185.69 L 357.33,185.56 L 358.42,185.46 L 359.50,185.39 L 360.58,185.35 L 361.67,185.33 L 362.75,185.35 L 363.83,185.39 L 364.92,185.46 L 366.00,185.56 L 367.08,185.69 L 368.17,185.84 L 369.25,186.02 L 370.33,186.22 L 371.42,186.45 L 372.50,186.70 L 373.58,186.97 L 374.67,187.26 L 375.75,187.56 L 376.83,187.88 L 377.92,188.21 L 379.00,188.56 L 380.08,188.91 L 381.17,189.27 L 382.25,189.63 L 383.33,190.00 L 384.42,190.37 L 385.50,190.73 L 386.58,191.09 L 387.67,191.44 L 388.75,191.79 L 389.83,192.12 L 390.92,192.44 L 392.00,192.74 L 393.08,193.03 L 394.17,193.30 L 395.25,193.55 L 396.33,193.78 L 397.42,193.98 L 398.50,194.16 L 399.58,194.31 L 400.67,194.44 L 401.75,194.54 L 402.83,194.61 L 403.92,194.65 L 405.00,194.67 L 406.08,194.65 L 407.17,194.61 L 408.25,194.54 L 409.33,194.44 L 410.42,194.31 L 411.50,194.16 L 412.58,193.98 L 413.67,193.78 L 414.75,193.55 L 415.83,193.30 L 416.92,193.03 L 418.00,192.74 L 419.08,192.44 L 420.17,192.12 L 421.25,191.79 L 422.33,191.44 L 423.42,191.09 L 424.50,190.73 L 425.58,190.37 L 426.67,190.00 L 427.75,189.63 L 428.83,189.27 L 429.92,188.91 L 431.00,188.56 L 432.08,188.21 L 433.17,187.88 L 434.25,187.56 L 435.33,187.26 L 436.42,186.97 L 437.50,186.70 L 438.58,186.45 L 439.67,186.22 L 440.75,186.02 L 441.83,185.84 L 442.92,185.69 L 444.00,185.56 L 445.08,185.46 L 446.17,185.39 L 447.25,185.35 L 448.33,185.33 L 449.42,185.35 L 450.50,185.39 L 451.58,185.46 L 452.67,185.56 L 453.75,185.69 L 454.83,185.84 L 455.92,186.02 L 457.00,186.22 L 458.08,186.45 L 459.17,186.70 L 460.25,186.97 L 461.33,187.26 L 462.42,187.56 L 463.50,187.88 L 464.58,188.21 L 465.67,188.56 L 466.75,188.91 L 467.83,189.27 L 468.92,189.63 L 470.00,190.00 L 471.08,190.37 L 472.17,190.73 L 473.25,191.09 L 474.33,191.44 L 475.42,191.79 L 476.50,192.12 L 477.58,192.44 L 478.67,192.74 L 479.75,193.03 L 480.83,193.30 L 481.92,193.55 L 483.00,193.78 L 484.08,193.98 L 485.17,194.16 L 486.25,194.31 L 487.33,194.44 L 488.42,194.54 L 489.50,194.61 L 490.58,194.65 L 491.67,194.67 L 492.75,194.65 L 493.83,194.61 L 494.92,194.54 L 496.00,194.44 L 497.08,194.31 L 498.17,194.16 L 499.25,193.98 L 500.33,193.78 L 501.42,193.55 L 502.50,193.30 L 503.58,193.03 L 504.67,192.74 L 505.75,192.44 L 506.83,192.12 L 507.92,191.79 L 509.00,191.44 L 510.08,191.09 L 511.17,190.73 L 512.25,190.37 L 513.33,190.00 L 514.42,189.63 L 515.50,189.27 L 516.58,188.91 L 517.67,188.56 L 518.75,188.21 L 519.83,187.88 L 520.92,187.56 L 522.00,187.26 L 523.08,186.97 L 524.17,186.70 L 525.25,186.45 L 526.33,186.22 L 527.42,186.02 L 528.50,185.84 L 529.58,185.69 L 530.67,185.56 L 531.75,185.46 L 532.83,185.39 L 533.92,185.35 L 535.00,185.33 L 536.08,185.35 L 537.17,185.39 L 538.25,185.46 L 539.33,185.56 L 540.42,185.69 L 541.50,185.84 L 542.58,186.02 L 543.67,186.22 L 544.75,186.45 L 545.83,186.70 L 546.92,186.97 L 548.00,187.26 L 549.08,187.56 L 550.17,187.88 L 551.25,188.21 L 552.33,188.56 L 553.42,188.91 L 554.50,189.27 L 555.58,189.63 L 556.67,190.00 L 557.75,190.37 L 558.83,190.73 L 559.92,191.09 L 561.00,191.44 L 562.08,191.79 L 563.17,192.12 L 564.25,192.44 L 565.33,192.74 L 566.42,193.03 L 567.50,193.30 L 568.58,193.55 L 569.67,193.78 L 570.75,193.98 L 571.83,194.16 L 572.92,194.31 L 574.00,194.44 L 575.08,194.54 L 576.17,194.61 L 577.25,194.65 L 578.33,194.67 L 579.42,194.65 L 580.50,194.61 L 581.58,194.54 L 582.67,194.44 L 583.75,194.31 L 584.83,194.16 L 585.92,193.98 L 587.00,193.78 L 588.08,193.55 L 589.17,193.30 L 590.25,193.03 L 591.33,192.74 L 592.42,192.44 L 593.50,192.12 L 594.58,191.79 L 595.67,191.44 L 596.75,191.09 L 597.83,190.73 L 598.92,190.37 L 600.00,190.00 L 601.08,189.63 L 602.17,189.27 L 603.25,188.91 L 604.33,188.56 L 605.42,188.21 L 606.50,187.88 L 607.58,187.56 L 608.67,187.26 L 609.75,186.97 L 610.83,186.70 L 611.92,186.45 L 613.00,186.22 L 614.08,186.02 L 615.17,185.84 L 616.25,185.69 L 617.33,185.56 L 618.42,185.46 L 619.50,185.39 L 620.58,185.35 L 621.67,185.33 L 622.75,185.35 L 623.83,185.39 L 624.92,185.46 L 626.00,185.56 L 627.08,185.69 L 628.17,185.84 L 629.25,186.02 L 630.33,186.22 L 631.42,186.45 L 632.50,186.70 L 633.58,186.97 L 634.67,187.26 L 635.75,187.56 L 636.83,187.88 L 637.92,188.21 L 639.00,188.56 L 640.08,188.91 L 641.17,189.27 L 642.25,189.63 L 643.33,190.00 L 644.42,190.37 L 645.50,190.73 L 646.58,191.09 L 647.67,191.44 L 648.75,191.79 L 649.83,192.12 L 650.92,192.44 L 652.00,192.74 L 653.08,193.03 L 654.17,193.30 L 655.25,193.55 L 656.33,193.78 L 657.42,193.98 L 658.50,194.16 L 659.58,194.31 L 660.67,194.44 L 661.75,194.54 L 662.83,194.61 L 663.92,194.65 L 665.00,194.67 L 666.08,194.65 L 667.17,194.61 L 668.25,194.54 L 669.33,194.44 L 670.42,194.31 L 671.50,194.16 L 672.58,193.98 L 673.67,193.78 L 674.75,193.55 L 675.83,193.30 L 676.92,193.03 L 678.00,192.74 L 679.08,192.44 L 680.17,192.12 L 681.25,191.79 L 682.33,191.44 L 683.42,191.09 L 684.50,190.73 L 685.58,190.37 L 686.67,190.00 L 687.75,189.63 L 688.83,189.27 L 689.92,188.91 L 691.00,188.56 L 692.08,188.21 L 693.17,187.88 L 694.25,187.56 L 695.33,187.26 L 696.42,186.97 L 697.50,186.70 L 698.58,186.45 L 699.67,186.22 L 700.75,186.02 L 701.83,185.84 L 702.92,185.69 L 704.00,185.56 L 705.08,185.46 L 706.17,185.39 L 707.25,185.35 L 708.33,185.33 L 709.42,185.35 L 710.50,185.39 L 711.58,185.46 L 712.67,185.56 L 713.75,185.69 L 714.83,185.84 L 715.92,186.02 L 717.00,186.22 L 718.08,186.45 L 719.17,186.70 L 720.25,186.97 L 721.33,187.26 L 722.42,187.56 L 723.50,187.88 L 724.58,188.21 L 725.67,188.56 L 726.75,188.91 L 727.83,189.27 L 728.92,189.63 L 730.00,190.00 L 731.08,190.37 L 732.17,190.73 L 733.25,191.09 L 734.33,191.44 L 735.42,191.79 L 736.50,192.12 L 737.58,192.44 L 738.67,192.74 L 739.75,193.03 L 740.83,193.30 L 741.92,193.55 L 743.00,193.78 L 744.08,193.98 L 745.17,194.16 L 746.25,194.31 L 747.33,194.44 L 748.42,194.54 L 749.50,194.61 L 750.58,194.65 L 751.67,194.67 L 752.75,194.65 L 753.83,194.61 L 754.92,194.54 L 756.00,194.44 L 757.08,194.31 L 758.17,194.16 L 759.25,193.98 L 760.33,193.78 L 761.42,193.55 L 762.50,193.30 L 763.58,193.03 L 764.67,192.74 L 765.75,192.44 L 766.83,192.12 L 767.92,191.79 L 769.00,191.44 L 770.08,191.09 L 771.17,190.73 L 772.25,190.37 L 773.33,190.00 L 774.42,189.63 L 775.50,189.27 L 776.58,188.91 L 777.67,188.56 L 778.75,188.21 L 779.83,187.88 L 780.92,187.56 L 782.00,187.26 L 783.08,186.97 L 784.17,186.70 L 785.25,186.45 L 786.33,186.22 L 787.42,186.02 L 788.50,185.84 L 789.58,185.69 L 790.67,185.56 L 791.75,185.46 L 792.83,185.39 L 793.92,185.35 L 795.00,185.33 L 796.08,185.35 L 797.17,185.39 L 798.25,185.46 L 799.33,185.56 L 800.42,185.69 L 801.50,185.84 L 802.58,186.02 L 803.67,186.22 L 804.75,186.45 L 805.83,186.70 L 806.92,186.97 L 808.00,187.26 L 809.08,187.56 L 810.17,187.88 L 811.25,188.21 L 812.33,188.56 L 813.42,188.91 L 814.50,189.27 L 815.58,189.63 L 816.67,190.00 L 817.75,190.37 L 818.83,190.73 L 819.92,191.09 L 821.00,191.44 L 822.08,191.79 L 823.17,192.12 L 824.25,192.44 L 825.33,192.74 L 826.42,193.03 L 827.50,193.30 L 828.58,193.55 L 829.67,193.78 L 830.75,193.98 L 831.83,194.16 L 832.92,194.31 L 834.00,194.44 L 835.08,194.54 L 836.17,194.61 L 837.25,194.65 L 838.33,194.67 L 839.42,194.65 L 840.50,194.61 L 841.58,194.54 L 842.67,194.44 L 843.75,194.31 L 844.83,194.16 L 845.92,193.98 L 847.00,193.78 L 848.08,193.55 L 849.17,193.30 L 850.25,193.03 L 851.33,192.74 L 852.42,192.44 L 853.50,192.12 L 854.58,191.79 L 855.67,191.44 L 856.75,191.09 L 857.83,190.73 L 858.92,190.37 L 860.00,190.00" fill="none" stroke="#a78bfa" stroke-width="1.4" opacity="0.75"/>
<text x="700" y="121" font-family="sans-serif" font-size="11" fill="#a78bfa">harmonis 9</text>
<path d="M 80.00,190.00 L 81.08,189.63 L 82.17,189.27 L 83.25,188.91 L 84.33,188.56 L 85.42,188.23 L 86.50,187.90 L 87.58,187.59 L 88.67,187.30 L 89.75,187.03 L 90.83,186.78 L 91.92,186.56 L 93.00,186.36 L 94.08,186.19 L 95.17,186.05 L 96.25,185.94 L 97.33,185.86 L 98.42,185.82 L 99.50,185.80 L 100.58,185.82 L 101.67,185.86 L 102.75,185.94 L 103.83,186.05 L 104.92,186.19 L 106.00,186.36 L 107.08,186.56 L 108.17,186.78 L 109.25,187.03 L 110.33,187.30 L 111.42,187.59 L 112.50,187.90 L 113.58,188.23 L 114.67,188.56 L 115.75,188.91 L 116.83,189.27 L 117.92,189.63 L 119.00,190.00 L 120.08,190.37 L 121.17,190.73 L 122.25,191.09 L 123.33,191.44 L 124.42,191.77 L 125.50,192.10 L 126.58,192.41 L 127.67,192.70 L 128.75,192.97 L 129.83,193.22 L 130.92,193.44 L 132.00,193.64 L 133.08,193.81 L 134.17,193.95 L 135.25,194.06 L 136.33,194.14 L 137.42,194.18 L 138.50,194.20 L 139.58,194.18 L 140.67,194.14 L 141.75,194.06 L 142.83,193.95 L 143.92,193.81 L 145.00,193.64 L 146.08,193.44 L 147.17,193.22 L 148.25,192.97 L 149.33,192.70 L 150.42,192.41 L 151.50,192.10 L 152.58,191.77 L 153.67,191.44 L 154.75,191.09 L 155.83,190.73 L 156.92,190.37 L 158.00,190.00 L 159.08,189.63 L 160.17,189.27 L 161.25,188.91 L 162.33,188.56 L 163.42,188.23 L 164.50,187.90 L 165.58,187.59 L 166.67,187.30 L 167.75,187.03 L 168.83,186.78 L 169.92,186.56 L 171.00,186.36 L 172.08,186.19 L 173.17,186.05 L 174.25,185.94 L 175.33,185.86 L 176.42,185.82 L 177.50,185.80 L 178.58,185.82 L 179.67,185.86 L 180.75,185.94 L 181.83,186.05 L 182.92,186.19 L 184.00,186.36 L 185.08,186.56 L 186.17,186.78 L 187.25,187.03 L 188.33,187.30 L 189.42,187.59 L 190.50,187.90 L 191.58,188.23 L 192.67,188.56 L 193.75,188.91 L 194.83,189.27 L 195.92,189.63 L 197.00,190.00 L 198.08,190.37 L 199.17,190.73 L 200.25,191.09 L 201.33,191.44 L 202.42,191.77 L 203.50,192.10 L 204.58,192.41 L 205.67,192.70 L 206.75,192.97 L 207.83,193.22 L 208.92,193.44 L 210.00,193.64 L 211.08,193.81 L 212.17,193.95 L 213.25,194.06 L 214.33,194.14 L 215.42,194.18 L 216.50,194.20 L 217.58,194.18 L 218.67,194.14 L 219.75,194.06 L 220.83,193.95 L 221.92,193.81 L 223.00,193.64 L 224.08,193.44 L 225.17,193.22 L 226.25,192.97 L 227.33,192.70 L 228.42,192.41 L 229.50,192.10 L 230.58,191.77 L 231.67,191.44 L 232.75,191.09 L 233.83,190.73 L 234.92,190.37 L 236.00,190.00 L 237.08,189.63 L 238.17,189.27 L 239.25,188.91 L 240.33,188.56 L 241.42,188.23 L 242.50,187.90 L 243.58,187.59 L 244.67,187.30 L 245.75,187.03 L 246.83,186.78 L 247.92,186.56 L 249.00,186.36 L 250.08,186.19 L 251.17,186.05 L 252.25,185.94 L 253.33,185.86 L 254.42,185.82 L 255.50,185.80 L 256.58,185.82 L 257.67,185.86 L 258.75,185.94 L 259.83,186.05 L 260.92,186.19 L 262.00,186.36 L 263.08,186.56 L 264.17,186.78 L 265.25,187.03 L 266.33,187.30 L 267.42,187.59 L 268.50,187.90 L 269.58,188.23 L 270.67,188.56 L 271.75,188.91 L 272.83,189.27 L 273.92,189.63 L 275.00,190.00 L 276.08,190.37 L 277.17,190.73 L 278.25,191.09 L 279.33,191.44 L 280.42,191.77 L 281.50,192.10 L 282.58,192.41 L 283.67,192.70 L 284.75,192.97 L 285.83,193.22 L 286.92,193.44 L 288.00,193.64 L 289.08,193.81 L 290.17,193.95 L 291.25,194.06 L 292.33,194.14 L 293.42,194.18 L 294.50,194.20 L 295.58,194.18 L 296.67,194.14 L 297.75,194.06 L 298.83,193.95 L 299.92,193.81 L 301.00,193.64 L 302.08,193.44 L 303.17,193.22 L 304.25,192.97 L 305.33,192.70 L 306.42,192.41 L 307.50,192.10 L 308.58,191.77 L 309.67,191.44 L 310.75,191.09 L 311.83,190.73 L 312.92,190.37 L 314.00,190.00 L 315.08,189.63 L 316.17,189.27 L 317.25,188.91 L 318.33,188.56 L 319.42,188.23 L 320.50,187.90 L 321.58,187.59 L 322.67,187.30 L 323.75,187.03 L 324.83,186.78 L 325.92,186.56 L 327.00,186.36 L 328.08,186.19 L 329.17,186.05 L 330.25,185.94 L 331.33,185.86 L 332.42,185.82 L 333.50,185.80 L 334.58,185.82 L 335.67,185.86 L 336.75,185.94 L 337.83,186.05 L 338.92,186.19 L 340.00,186.36 L 341.08,186.56 L 342.17,186.78 L 343.25,187.03 L 344.33,187.30 L 345.42,187.59 L 346.50,187.90 L 347.58,188.23 L 348.67,188.56 L 349.75,188.91 L 350.83,189.27 L 351.92,189.63 L 353.00,190.00 L 354.08,190.37 L 355.17,190.73 L 356.25,191.09 L 357.33,191.44 L 358.42,191.77 L 359.50,192.10 L 360.58,192.41 L 361.67,192.70 L 362.75,192.97 L 363.83,193.22 L 364.92,193.44 L 366.00,193.64 L 367.08,193.81 L 368.17,193.95 L 369.25,194.06 L 370.33,194.14 L 371.42,194.18 L 372.50,194.20 L 373.58,194.18 L 374.67,194.14 L 375.75,194.06 L 376.83,193.95 L 377.92,193.81 L 379.00,193.64 L 380.08,193.44 L 381.17,193.22 L 382.25,192.97 L 383.33,192.70 L 384.42,192.41 L 385.50,192.10 L 386.58,191.77 L 387.67,191.44 L 388.75,191.09 L 389.83,190.73 L 390.92,190.37 L 392.00,190.00 L 393.08,189.63 L 394.17,189.27 L 395.25,188.91 L 396.33,188.56 L 397.42,188.23 L 398.50,187.90 L 399.58,187.59 L 400.67,187.30 L 401.75,187.03 L 402.83,186.78 L 403.92,186.56 L 405.00,186.36 L 406.08,186.19 L 407.17,186.05 L 408.25,185.94 L 409.33,185.86 L 410.42,185.82 L 411.50,185.80 L 412.58,185.82 L 413.67,185.86 L 414.75,185.94 L 415.83,186.05 L 416.92,186.19 L 418.00,186.36 L 419.08,186.56 L 420.17,186.78 L 421.25,187.03 L 422.33,187.30 L 423.42,187.59 L 424.50,187.90 L 425.58,188.23 L 426.67,188.56 L 427.75,188.91 L 428.83,189.27 L 429.92,189.63 L 431.00,190.00 L 432.08,190.37 L 433.17,190.73 L 434.25,191.09 L 435.33,191.44 L 436.42,191.77 L 437.50,192.10 L 438.58,192.41 L 439.67,192.70 L 440.75,192.97 L 441.83,193.22 L 442.92,193.44 L 444.00,193.64 L 445.08,193.81 L 446.17,193.95 L 447.25,194.06 L 448.33,194.14 L 449.42,194.18 L 450.50,194.20 L 451.58,194.18 L 452.67,194.14 L 453.75,194.06 L 454.83,193.95 L 455.92,193.81 L 457.00,193.64 L 458.08,193.44 L 459.17,193.22 L 460.25,192.97 L 461.33,192.70 L 462.42,192.41 L 463.50,192.10 L 464.58,191.77 L 465.67,191.44 L 466.75,191.09 L 467.83,190.73 L 468.92,190.37 L 470.00,190.00 L 471.08,189.63 L 472.17,189.27 L 473.25,188.91 L 474.33,188.56 L 475.42,188.23 L 476.50,187.90 L 477.58,187.59 L 478.67,187.30 L 479.75,187.03 L 480.83,186.78 L 481.92,186.56 L 483.00,186.36 L 484.08,186.19 L 485.17,186.05 L 486.25,185.94 L 487.33,185.86 L 488.42,185.82 L 489.50,185.80 L 490.58,185.82 L 491.67,185.86 L 492.75,185.94 L 493.83,186.05 L 494.92,186.19 L 496.00,186.36 L 497.08,186.56 L 498.17,186.78 L 499.25,187.03 L 500.33,187.30 L 501.42,187.59 L 502.50,187.90 L 503.58,188.23 L 504.67,188.56 L 505.75,188.91 L 506.83,189.27 L 507.92,189.63 L 509.00,190.00 L 510.08,190.37 L 511.17,190.73 L 512.25,191.09 L 513.33,191.44 L 514.42,191.77 L 515.50,192.10 L 516.58,192.41 L 517.67,192.70 L 518.75,192.97 L 519.83,193.22 L 520.92,193.44 L 522.00,193.64 L 523.08,193.81 L 524.17,193.95 L 525.25,194.06 L 526.33,194.14 L 527.42,194.18 L 528.50,194.20 L 529.58,194.18 L 530.67,194.14 L 531.75,194.06 L 532.83,193.95 L 533.92,193.81 L 535.00,193.64 L 536.08,193.44 L 537.17,193.22 L 538.25,192.97 L 539.33,192.70 L 540.42,192.41 L 541.50,192.10 L 542.58,191.77 L 543.67,191.44 L 544.75,191.09 L 545.83,190.73 L 546.92,190.37 L 548.00,190.00 L 549.08,189.63 L 550.17,189.27 L 551.25,188.91 L 552.33,188.56 L 553.42,188.23 L 554.50,187.90 L 555.58,187.59 L 556.67,187.30 L 557.75,187.03 L 558.83,186.78 L 559.92,186.56 L 561.00,186.36 L 562.08,186.19 L 563.17,186.05 L 564.25,185.94 L 565.33,185.86 L 566.42,185.82 L 567.50,185.80 L 568.58,185.82 L 569.67,185.86 L 570.75,185.94 L 571.83,186.05 L 572.92,186.19 L 574.00,186.36 L 575.08,186.56 L 576.17,186.78 L 577.25,187.03 L 578.33,187.30 L 579.42,187.59 L 580.50,187.90 L 581.58,188.23 L 582.67,188.56 L 583.75,188.91 L 584.83,189.27 L 585.92,189.63 L 587.00,190.00 L 588.08,190.37 L 589.17,190.73 L 590.25,191.09 L 591.33,191.44 L 592.42,191.77 L 593.50,192.10 L 594.58,192.41 L 595.67,192.70 L 596.75,192.97 L 597.83,193.22 L 598.92,193.44 L 600.00,193.64 L 601.08,193.81 L 602.17,193.95 L 603.25,194.06 L 604.33,194.14 L 605.42,194.18 L 606.50,194.20 L 607.58,194.18 L 608.67,194.14 L 609.75,194.06 L 610.83,193.95 L 611.92,193.81 L 613.00,193.64 L 614.08,193.44 L 615.17,193.22 L 616.25,192.97 L 617.33,192.70 L 618.42,192.41 L 619.50,192.10 L 620.58,191.77 L 621.67,191.44 L 622.75,191.09 L 623.83,190.73 L 624.92,190.37 L 626.00,190.00 L 627.08,189.63 L 628.17,189.27 L 629.25,188.91 L 630.33,188.56 L 631.42,188.23 L 632.50,187.90 L 633.58,187.59 L 634.67,187.30 L 635.75,187.03 L 636.83,186.78 L 637.92,186.56 L 639.00,186.36 L 640.08,186.19 L 641.17,186.05 L 642.25,185.94 L 643.33,185.86 L 644.42,185.82 L 645.50,185.80 L 646.58,185.82 L 647.67,185.86 L 648.75,185.94 L 649.83,186.05 L 650.92,186.19 L 652.00,186.36 L 653.08,186.56 L 654.17,186.78 L 655.25,187.03 L 656.33,187.30 L 657.42,187.59 L 658.50,187.90 L 659.58,188.23 L 660.67,188.56 L 661.75,188.91 L 662.83,189.27 L 663.92,189.63 L 665.00,190.00 L 666.08,190.37 L 667.17,190.73 L 668.25,191.09 L 669.33,191.44 L 670.42,191.77 L 671.50,192.10 L 672.58,192.41 L 673.67,192.70 L 674.75,192.97 L 675.83,193.22 L 676.92,193.44 L 678.00,193.64 L 679.08,193.81 L 680.17,193.95 L 681.25,194.06 L 682.33,194.14 L 683.42,194.18 L 684.50,194.20 L 685.58,194.18 L 686.67,194.14 L 687.75,194.06 L 688.83,193.95 L 689.92,193.81 L 691.00,193.64 L 692.08,193.44 L 693.17,193.22 L 694.25,192.97 L 695.33,192.70 L 696.42,192.41 L 697.50,192.10 L 698.58,191.77 L 699.67,191.44 L 700.75,191.09 L 701.83,190.73 L 702.92,190.37 L 704.00,190.00 L 705.08,189.63 L 706.17,189.27 L 707.25,188.91 L 708.33,188.56 L 709.42,188.23 L 710.50,187.90 L 711.58,187.59 L 712.67,187.30 L 713.75,187.03 L 714.83,186.78 L 715.92,186.56 L 717.00,186.36 L 718.08,186.19 L 719.17,186.05 L 720.25,185.94 L 721.33,185.86 L 722.42,185.82 L 723.50,185.80 L 724.58,185.82 L 725.67,185.86 L 726.75,185.94 L 727.83,186.05 L 728.92,186.19 L 730.00,186.36 L 731.08,186.56 L 732.17,186.78 L 733.25,187.03 L 734.33,187.30 L 735.42,187.59 L 736.50,187.90 L 737.58,188.23 L 738.67,188.56 L 739.75,188.91 L 740.83,189.27 L 741.92,189.63 L 743.00,190.00 L 744.08,190.37 L 745.17,190.73 L 746.25,191.09 L 747.33,191.44 L 748.42,191.77 L 749.50,192.10 L 750.58,192.41 L 751.67,192.70 L 752.75,192.97 L 753.83,193.22 L 754.92,193.44 L 756.00,193.64 L 757.08,193.81 L 758.17,193.95 L 759.25,194.06 L 760.33,194.14 L 761.42,194.18 L 762.50,194.20 L 763.58,194.18 L 764.67,194.14 L 765.75,194.06 L 766.83,193.95 L 767.92,193.81 L 769.00,193.64 L 770.08,193.44 L 771.17,193.22 L 772.25,192.97 L 773.33,192.70 L 774.42,192.41 L 775.50,192.10 L 776.58,191.77 L 777.67,191.44 L 778.75,191.09 L 779.83,190.73 L 780.92,190.37 L 782.00,190.00 L 783.08,189.63 L 784.17,189.27 L 785.25,188.91 L 786.33,188.56 L 787.42,188.23 L 788.50,187.90 L 789.58,187.59 L 790.67,187.30 L 791.75,187.03 L 792.83,186.78 L 793.92,186.56 L 795.00,186.36 L 796.08,186.19 L 797.17,186.05 L 798.25,185.94 L 799.33,185.86 L 800.42,185.82 L 801.50,185.80 L 802.58,185.82 L 803.67,185.86 L 804.75,185.94 L 805.83,186.05 L 806.92,186.19 L 808.00,186.36 L 809.08,186.56 L 810.17,186.78 L 811.25,187.03 L 812.33,187.30 L 813.42,187.59 L 814.50,187.90 L 815.58,188.23 L 816.67,188.56 L 817.75,188.91 L 818.83,189.27 L 819.92,189.63 L 821.00,190.00 L 822.08,190.37 L 823.17,190.73 L 824.25,191.09 L 825.33,191.44 L 826.42,191.77 L 827.50,192.10 L 828.58,192.41 L 829.67,192.70 L 830.75,192.97 L 831.83,193.22 L 832.92,193.44 L 834.00,193.64 L 835.08,193.81 L 836.17,193.95 L 837.25,194.06 L 838.33,194.14 L 839.42,194.18 L 840.50,194.20 L 841.58,194.18 L 842.67,194.14 L 843.75,194.06 L 844.83,193.95 L 845.92,193.81 L 847.00,193.64 L 848.08,193.44 L 849.17,193.22 L 850.25,192.97 L 851.33,192.70 L 852.42,192.41 L 853.50,192.10 L 854.58,191.77 L 855.67,191.44 L 856.75,191.09 L 857.83,190.73 L 858.92,190.37 L 860.00,190.00" fill="none" stroke="#14b8a6" stroke-width="1.4" opacity="0.75"/>
<text x="700" y="138" font-family="sans-serif" font-size="11" fill="#14b8a6">harmonis 10</text>
<path d="M 80.00,190.00 L 81.08,187.80 L 82.17,185.61 L 83.25,183.44 L 84.33,181.28 L 85.42,179.16 L 86.50,177.07 L 87.58,175.02 L 88.67,173.03 L 89.75,171.09 L 90.83,169.21 L 91.92,167.40 L 93.00,165.66 L 94.08,163.99 L 95.17,162.41 L 96.25,160.92 L 97.33,159.51 L 98.42,158.20 L 99.50,156.98 L 100.58,155.86 L 101.67,154.83 L 102.75,153.90 L 103.83,153.08 L 104.92,152.35 L 106.00,151.72 L 107.08,151.19 L 108.17,150.75 L 109.25,150.41 L 110.33,150.16 L 111.42,150.00 L 112.50,149.92 L 113.58,149.92 L 114.67,150.00 L 115.75,150.16 L 116.83,150.38 L 117.92,150.66 L 119.00,151.00 L 120.08,151.39 L 121.17,151.83 L 122.25,152.31 L 123.33,152.82 L 124.42,153.36 L 125.50,153.92 L 126.58,154.50 L 127.67,155.10 L 128.75,155.69 L 129.83,156.29 L 130.92,156.88 L 132.00,157.46 L 133.08,158.03 L 134.17,158.57 L 135.25,159.09 L 136.33,159.58 L 137.42,160.04 L 138.50,160.46 L 139.58,160.85 L 140.67,161.19 L 141.75,161.49 L 142.83,161.74 L 143.92,161.95 L 145.00,162.10 L 146.08,162.21 L 147.17,162.28 L 148.25,162.29 L 149.33,162.25 L 150.42,162.17 L 151.50,162.04 L 152.58,161.87 L 153.67,161.66 L 154.75,161.41 L 155.83,161.12 L 156.92,160.80 L 158.00,160.45 L 159.08,160.07 L 160.17,159.66 L 161.25,159.24 L 162.33,158.80 L 163.42,158.35 L 164.50,157.89 L 165.58,157.43 L 166.67,156.96 L 167.75,156.50 L 168.83,156.04 L 169.92,155.60 L 171.00,155.17 L 172.08,154.76 L 173.17,154.37 L 174.25,154.01 L 175.33,153.67 L 176.42,153.36 L 177.50,153.08 L 178.58,152.84 L 179.67,152.64 L 180.75,152.47 L 181.83,152.34 L 182.92,152.25 L 184.00,152.20 L 185.08,152.19 L 186.17,152.22 L 187.25,152.29 L 188.33,152.40 L 189.42,152.54 L 190.50,152.72 L 191.58,152.94 L 192.67,153.19 L 193.75,153.47 L 194.83,153.78 L 195.92,154.11 L 197.00,154.47 L 198.08,154.84 L 199.17,155.23 L 200.25,155.64 L 201.33,156.06 L 202.42,156.48 L 203.50,156.90 L 204.58,157.33 L 205.67,157.75 L 206.75,158.17 L 207.83,158.57 L 208.92,158.97 L 210.00,159.34 L 211.08,159.70 L 212.17,160.03 L 213.25,160.34 L 214.33,160.63 L 215.42,160.88 L 216.50,161.10 L 217.58,161.29 L 218.67,161.44 L 219.75,161.56 L 220.83,161.65 L 221.92,161.69 L 223.00,161.70 L 224.08,161.67 L 225.17,161.61 L 226.25,161.51 L 227.33,161.37 L 228.42,161.20 L 229.50,161.00 L 230.58,160.76 L 231.67,160.50 L 232.75,160.21 L 233.83,159.89 L 234.92,159.55 L 236.00,159.20 L 237.08,158.82 L 238.17,158.43 L 239.25,158.03 L 240.33,157.63 L 241.42,157.22 L 242.50,156.80 L 243.58,156.39 L 244.67,155.99 L 245.75,155.59 L 246.83,155.20 L 247.92,154.83 L 249.00,154.48 L 250.08,154.14 L 251.17,153.83 L 252.25,153.54 L 253.33,153.28 L 254.42,153.05 L 255.50,152.85 L 256.58,152.68 L 257.67,152.54 L 258.75,152.44 L 259.83,152.37 L 260.92,152.34 L 262.00,152.35 L 263.08,152.39 L 264.17,152.47 L 265.25,152.58 L 266.33,152.73 L 267.42,152.90 L 268.50,153.11 L 269.58,153.36 L 270.67,153.62 L 271.75,153.92 L 272.83,154.24 L 273.92,154.58 L 275.00,154.93 L 276.08,155.31 L 277.17,155.69 L 278.25,156.09 L 279.33,156.50 L 280.42,156.91 L 281.50,157.31 L 282.58,157.72 L 283.67,158.12 L 284.75,158.52 L 285.83,158.90 L 286.92,159.27 L 288.00,159.62 L 289.08,159.96 L 290.17,160.27 L 291.25,160.55 L 292.33,160.81 L 293.42,161.04 L 294.50,161.25 L 295.58,161.41 L 296.67,161.55 L 297.75,161.65 L 298.83,161.72 L 299.92,161.75 L 301.00,161.75 L 302.08,161.71 L 303.17,161.64 L 304.25,161.53 L 305.33,161.39 L 306.42,161.21 L 307.50,161.00 L 308.58,160.77 L 309.67,160.50 L 310.75,160.21 L 311.83,159.89 L 312.92,159.55 L 314.00,159.20 L 315.08,158.82 L 316.17,158.43 L 317.25,158.03 L 318.33,157.63 L 319.42,157.21 L 320.50,156.80 L 321.58,156.38 L 322.67,155.97 L 323.75,155.57 L 324.83,155.17 L 325.92,154.79 L 327.00,154.43 L 328.08,154.08 L 329.17,153.75 L 330.25,153.45 L 331.33,153.17 L 332.42,152.92 L 333.50,152.70 L 334.58,152.51 L 335.67,152.35 L 336.75,152.23 L 337.83,152.14 L 338.92,152.09 L 340.00,152.07 L 341.08,152.09 L 342.17,152.14 L 343.25,152.23 L 344.33,152.35 L 345.42,152.51 L 346.50,152.70 L 347.58,152.93 L 348.67,153.18 L 349.75,153.47 L 350.83,153.78 L 351.92,154.11 L 353.00,154.47 L 354.08,154.84 L 355.17,155.23 L 356.25,155.64 L 357.33,156.06 L 358.42,156.49 L 359.50,156.92 L 360.58,157.36 L 361.67,157.79 L 362.75,158.23 L 363.83,158.65 L 364.92,159.07 L 366.00,159.47 L 367.08,159.86 L 368.17,160.23 L 369.25,160.58 L 370.33,160.91 L 371.42,161.21 L 372.50,161.48 L 373.58,161.73 L 374.67,161.94 L 375.75,162.12 L 376.83,162.27 L 377.92,162.37 L 379.00,162.45 L 380.08,162.48 L 381.17,162.48 L 382.25,162.44 L 383.33,162.36 L 384.42,162.24 L 385.50,162.09 L 386.58,161.90 L 387.67,161.68 L 388.75,161.42 L 389.83,161.12 L 390.92,160.80 L 392.00,160.45 L 393.08,160.07 L 394.17,159.66 L 395.25,159.24 L 396.33,158.79 L 397.42,158.32 L 398.50,157.84 L 399.58,157.35 L 400.67,156.85 L 401.75,156.35 L 402.83,155.84 L 403.92,155.33 L 405.00,154.83 L 406.08,154.33 L 407.17,153.85 L 408.25,153.37 L 409.33,152.92 L 410.42,152.48 L 411.50,152.06 L 412.58,151.67 L 413.67,151.31 L 414.75,150.98 L 415.83,150.68 L 416.92,150.41 L 418.00,150.19 L 419.08,150.00 L 420.17,149.85 L 421.25,149.75 L 422.33,149.70 L 423.42,149.69 L 424.50,149.72 L 425.58,149.81 L 426.67,149.95 L 427.75,150.13 L 428.83,150.37 L 429.92,150.66 L 431.00,151.00 L 432.08,151.39 L 433.17,151.84 L 434.25,152.33 L 435.33,152.88 L 436.42,153.47 L 437.50,154.12 L 438.58,154.82 L 439.67,155.56 L 440.75,156.35 L 441.83,157.19 L 442.92,158.07 L 444.00,159.00 L 445.08,159.96 L 446.17,160.97 L 447.25,162.02 L 448.33,163.10 L 449.42,164.22 L 450.50,165.38 L 451.58,166.57 L 452.67,167.78 L 453.75,169.03 L 454.83,170.31 L 455.92,171.61 L 457.00,172.93 L 458.08,174.28 L 459.17,175.64 L 460.25,177.03 L 461.33,178.43 L 462.42,179.84 L 463.50,181.27 L 464.58,182.71 L 465.67,184.16 L 466.75,185.61 L 467.83,187.07 L 468.92,188.53 L 470.00,190.00 L 471.08,191.47 L 472.17,192.93 L 473.25,194.39 L 474.33,195.84 L 475.42,197.29 L 476.50,198.73 L 477.58,200.16 L 478.67,201.57 L 479.75,202.97 L 480.83,204.36 L 481.92,205.72 L 483.00,207.07 L 484.08,208.39 L 485.17,209.69 L 486.25,210.97 L 487.33,212.22 L 488.42,213.43 L 489.50,214.62 L 490.58,215.78 L 491.67,216.90 L 492.75,217.98 L 493.83,219.03 L 494.92,220.04 L 496.00,221.00 L 497.08,221.93 L 498.17,222.81 L 499.25,223.65 L 500.33,224.44 L 501.42,225.18 L 502.50,225.88 L 503.58,226.53 L 504.67,227.12 L 505.75,227.67 L 506.83,228.16 L 507.92,228.61 L 509.00,229.00 L 510.08,229.34 L 511.17,229.63 L 512.25,229.87 L 513.33,230.05 L 514.42,230.19 L 515.50,230.28 L 516.58,230.31 L 517.67,230.30 L 518.75,230.25 L 519.83,230.15 L 520.92,230.00 L 522.00,229.81 L 523.08,229.59 L 524.17,229.32 L 525.25,229.02 L 526.33,228.69 L 527.42,228.33 L 528.50,227.94 L 529.58,227.52 L 530.67,227.08 L 531.75,226.63 L 532.83,226.15 L 533.92,225.67 L 535.00,225.17 L 536.08,224.67 L 537.17,224.16 L 538.25,223.65 L 539.33,223.15 L 540.42,222.65 L 541.50,222.16 L 542.58,221.68 L 543.67,221.21 L 544.75,220.76 L 545.83,220.34 L 546.92,219.93 L 548.00,219.55 L 549.08,219.20 L 550.17,218.88 L 551.25,218.58 L 552.33,218.32 L 553.42,218.10 L 554.50,217.91 L 555.58,217.76 L 556.67,217.64 L 557.75,217.56 L 558.83,217.52 L 559.92,217.52 L 561.00,217.55 L 562.08,217.63 L 563.17,217.73 L 564.25,217.88 L 565.33,218.06 L 566.42,218.27 L 567.50,218.52 L 568.58,218.79 L 569.67,219.09 L 570.75,219.42 L 571.83,219.77 L 572.92,220.14 L 574.00,220.53 L 575.08,220.93 L 576.17,221.35 L 577.25,221.77 L 578.33,222.21 L 579.42,222.64 L 580.50,223.08 L 581.58,223.51 L 582.67,223.94 L 583.75,224.36 L 584.83,224.77 L 585.92,225.16 L 587.00,225.53 L 588.08,225.89 L 589.17,226.22 L 590.25,226.53 L 591.33,226.82 L 592.42,227.07 L 593.50,227.30 L 594.58,227.49 L 595.67,227.65 L 596.75,227.77 L 597.83,227.86 L 598.92,227.91 L 600.00,227.93 L 601.08,227.91 L 602.17,227.86 L 603.25,227.77 L 604.33,227.65 L 605.42,227.49 L 606.50,227.30 L 607.58,227.08 L 608.67,226.83 L 609.75,226.55 L 610.83,226.25 L 611.92,225.92 L 613.00,225.57 L 614.08,225.21 L 615.17,224.83 L 616.25,224.43 L 617.33,224.03 L 618.42,223.62 L 619.50,223.20 L 620.58,222.79 L 621.67,222.37 L 622.75,221.97 L 623.83,221.57 L 624.92,221.18 L 626.00,220.80 L 627.08,220.45 L 628.17,220.11 L 629.25,219.79 L 630.33,219.50 L 631.42,219.23 L 632.50,219.00 L 633.58,218.79 L 634.67,218.61 L 635.75,218.47 L 636.83,218.36 L 637.92,218.29 L 639.00,218.25 L 640.08,218.25 L 641.17,218.28 L 642.25,218.35 L 643.33,218.45 L 644.42,218.59 L 645.50,218.75 L 646.58,218.96 L 647.67,219.19 L 648.75,219.45 L 649.83,219.73 L 650.92,220.04 L 652.00,220.38 L 653.08,220.73 L 654.17,221.10 L 655.25,221.48 L 656.33,221.88 L 657.42,222.28 L 658.50,222.69 L 659.58,223.09 L 660.67,223.50 L 661.75,223.91 L 662.83,224.31 L 663.92,224.69 L 665.00,225.07 L 666.08,225.42 L 667.17,225.76 L 668.25,226.08 L 669.33,226.38 L 670.42,226.64 L 671.50,226.89 L 672.58,227.10 L 673.67,227.27 L 674.75,227.42 L 675.83,227.53 L 676.92,227.61 L 678.00,227.65 L 679.08,227.66 L 680.17,227.63 L 681.25,227.56 L 682.33,227.46 L 683.42,227.32 L 684.50,227.15 L 685.58,226.95 L 686.67,226.72 L 687.75,226.46 L 688.83,226.17 L 689.92,225.86 L 691.00,225.52 L 692.08,225.17 L 693.17,224.80 L 694.25,224.41 L 695.33,224.01 L 696.42,223.61 L 697.50,223.20 L 698.58,222.78 L 699.67,222.37 L 700.75,221.97 L 701.83,221.57 L 702.92,221.18 L 704.00,220.80 L 705.08,220.45 L 706.17,220.11 L 707.25,219.79 L 708.33,219.50 L 709.42,219.24 L 710.50,219.00 L 711.58,218.80 L 712.67,218.63 L 713.75,218.49 L 714.83,218.39 L 715.92,218.33 L 717.00,218.30 L 718.08,218.31 L 719.17,218.35 L 720.25,218.44 L 721.33,218.56 L 722.42,218.71 L 723.50,218.90 L 724.58,219.12 L 725.67,219.37 L 726.75,219.66 L 727.83,219.97 L 728.92,220.30 L 730.00,220.66 L 731.08,221.03 L 732.17,221.43 L 733.25,221.83 L 734.33,222.25 L 735.42,222.67 L 736.50,223.10 L 737.58,223.52 L 738.67,223.94 L 739.75,224.36 L 740.83,224.77 L 741.92,225.16 L 743.00,225.53 L 744.08,225.89 L 745.17,226.22 L 746.25,226.53 L 747.33,226.81 L 748.42,227.06 L 749.50,227.28 L 750.58,227.46 L 751.67,227.60 L 752.75,227.71 L 753.83,227.78 L 754.92,227.81 L 756.00,227.80 L 757.08,227.75 L 758.17,227.66 L 759.25,227.53 L 760.33,227.36 L 761.42,227.16 L 762.50,226.92 L 763.58,226.64 L 764.67,226.33 L 765.75,225.99 L 766.83,225.63 L 767.92,225.24 L 769.00,224.83 L 770.08,224.40 L 771.17,223.96 L 772.25,223.50 L 773.33,223.04 L 774.42,222.57 L 775.50,222.11 L 776.58,221.65 L 777.67,221.20 L 778.75,220.76 L 779.83,220.34 L 780.92,219.93 L 782.00,219.55 L 783.08,219.20 L 784.17,218.88 L 785.25,218.59 L 786.33,218.34 L 787.42,218.13 L 788.50,217.96 L 789.58,217.83 L 790.67,217.75 L 791.75,217.71 L 792.83,217.72 L 793.92,217.79 L 795.00,217.90 L 796.08,218.05 L 797.17,218.26 L 798.25,218.51 L 799.33,218.81 L 800.42,219.15 L 801.50,219.54 L 802.58,219.96 L 803.67,220.42 L 804.75,220.91 L 805.83,221.43 L 806.92,221.97 L 808.00,222.54 L 809.08,223.12 L 810.17,223.71 L 811.25,224.31 L 812.33,224.90 L 813.42,225.50 L 814.50,226.08 L 815.58,226.64 L 816.67,227.18 L 817.75,227.69 L 818.83,228.17 L 819.92,228.61 L 821.00,229.00 L 822.08,229.34 L 823.17,229.62 L 824.25,229.84 L 825.33,230.00 L 826.42,230.08 L 827.50,230.08 L 828.58,230.00 L 829.67,229.84 L 830.75,229.59 L 831.83,229.25 L 832.92,228.81 L 834.00,228.28 L 835.08,227.65 L 836.17,226.92 L 837.25,226.10 L 838.33,225.17 L 839.42,224.14 L 840.50,223.02 L 841.58,221.80 L 842.67,220.49 L 843.75,219.08 L 844.83,217.59 L 845.92,216.01 L 847.00,214.34 L 848.08,212.60 L 849.17,210.79 L 850.25,208.91 L 851.33,206.97 L 852.42,204.98 L 853.50,202.93 L 854.58,200.84 L 855.67,198.72 L 856.75,196.56 L 857.83,194.39 L 858.92,192.20 L 860.00,190.00" fill="none" stroke="#111827" stroke-width="3" stroke-linejoin="round" stroke-linecap="round"/>
<text x="72" y="65" text-anchor="end" font-family="sans-serif" font-size="12" fill="#475569">x(θ)</text>
<text x="868" y="194" font-family="sans-serif" font-size="12" fill="#475569">θ</text>
<path d="M700 170H730" stroke="#111827" stroke-width="3"/>
<text x="738" y="174" font-family="sans-serif" font-size="11" fill="#111827">resultan</text>
</svg>
